<?xml version="1.0" encoding="UTF-8"?>
<svg width="678px" height="98px" viewBox="0 0 678 98" version="1.1" xmlns="http://www.w3.org/2000/svg" xmlns:xlink="http://www.w3.org/1999/xlink">
    <!-- Generator: Sketch 64 (93537) - https://sketch.com -->
    <title>AdSense_Logo</title>
    <desc>Created with Sketch.</desc>
    <g id="Page-1" stroke="none" stroke-width="1" fill="none" fill-rule="evenodd">
        <g id="AdSense_Logo" fill="#9FA6B2">
            <path d="M670.072453,57.2784532 C669.922499,55.2271088 668.981414,53.2715232 667.24587,51.4084366 C665.507202,49.5549258 662.929523,48.6233486 659.503191,48.6233486 C657.008435,48.6233486 654.848632,49.4049716 653.011081,50.9713416 C651.176654,52.5345877 649.916577,54.6401275 649.233836,57.2816452 L670.072453,57.2816452 L670.072453,57.2784532 Z M660.386888,80.7585198 C654.957091,80.7585198 650.541793,78.9528205 647.147448,75.3319141 C643.740335,71.7110076 642.043095,67.1394401 642.043095,61.6107595 C642.043095,56.3787956 643.692456,51.8773832 646.994302,48.1097145 C650.296216,44.3420457 654.516872,42.4598073 659.649953,42.4598073 C664.9808,42.4598073 669.252527,44.1952834 672.455558,47.6694276 C675.658521,51.1435717 677.263263,55.7885544 677.263263,61.6106916 L677.186656,62.8548773 L648.793685,62.8548773 C648.988327,66.4789757 650.200593,69.3406029 652.424168,71.4429508 C654.650934,73.5484906 657.254216,74.5981026 660.240194,74.5981026 C665.08301,74.5981026 668.359389,72.5436341 670.072453,68.4345613 L676.089232,70.9293167 C674.91527,73.7175967 672.98196,76.0560139 670.289507,77.9382523 C667.603301,79.8172987 664.298195,80.7616438 660.386956,80.7616438 L660.386956,80.7585198 L660.386888,80.7585198 Z M624.407441,80.7617117 C620.397319,80.7617117 617.085897,79.7823229 614.469915,77.8267374 C611.915328,75.9529882 609.922729,73.4153112 608.708358,70.4892335 L614.725137,67.9944782 C616.632911,72.4958905 619.886945,74.7450007 624.484049,74.7450007 C626.589588,74.7450007 628.312297,74.282438 629.658557,73.3508607 C630.998434,72.4224754 631.67479,71.1974414 631.67479,69.6788829 C631.67479,67.3340818 630.038197,65.745368 626.758626,64.9126736 L619.494538,63.1484699 C617.194424,62.5646805 615.018661,61.4512973 612.964125,59.8147041 C610.912848,58.1749189 609.882388,55.9609203 609.882388,53.1726403 C609.882388,49.9920208 611.286104,47.4110825 614.103044,45.4331532 C616.910407,43.4520319 620.250625,42.4598753 624.117177,42.4598753 C627.294604,42.4598753 630.133956,43.184043 632.628643,44.6228704 C635.075791,46.0106944 636.96808,48.2016022 637.985026,50.8246473 L632.115009,53.2460554 C630.794284,50.0654359 628.057008,48.4766542 623.896999,48.4766542 C621.887082,48.4766542 620.20587,48.8945974 618.834073,49.7240319 C617.462277,50.5566584 616.779537,51.6828094 616.779537,53.0992931 C616.779537,55.1538295 618.368319,56.5479016 621.55213,57.2817131 L628.666333,58.9693098 C632.044786,59.7509328 634.536349,61.0971933 636.150531,63.0049674 C637.767972,64.9127415 638.571939,67.0660929 638.571939,69.4619653 C638.571939,72.6904643 637.251146,75.3798614 634.609629,77.5332128 C631.968043,79.6834401 628.567314,80.7617117 624.41043,80.7617117 M578.404421,43.6338378 L578.404421,48.6201566 L578.697878,48.6201566 C579.674075,46.9102162 581.218101,45.455429 583.320517,44.2559307 C585.372405,43.0711698 587.701653,42.4514539 590.070972,42.459724 C594.524505,42.459724 597.918985,43.8316036 600.27017,46.5688122 C602.618164,49.3060208 603.792194,52.9811906 603.792194,57.5751019 L603.792194,79.5877491 L597.041672,79.5877491 L597.041672,58.599246 C597.041672,51.9476064 594.081161,48.6202245 588.166457,48.6202245 C585.378177,48.6202245 583.103532,49.7367997 581.339396,51.9603742 C579.578384,54.1871407 578.697878,56.764887 578.697878,59.6998614 L578.697878,79.5877491 L571.95048,79.5877491 L571.95048,43.6339058 C571.95048,43.6339058 578.404421,43.6339058 578.404421,43.6338378 Z M559.106775,57.2784532 C558.960012,55.2271088 558.015735,53.2715232 556.280191,51.4084366 C554.544715,49.5549258 551.963845,48.6233486 548.540772,48.6233486 C546.046017,48.6233486 543.883021,49.4049716 542.045471,50.9713416 C540.211112,52.5345877 538.954158,54.6401275 538.268226,57.2816452 L559.106775,57.2816452 L559.106775,57.2784532 Z M549.42121,80.7585198 C543.99148,80.7585198 539.576183,78.9528205 536.178578,75.3319141 C532.777781,71.7110076 531.077416,67.1394401 531.077416,61.6107595 C531.077416,56.3787956 532.726778,51.8773832 536.031816,48.1097145 C539.33373,44.3420457 543.551125,42.4598073 548.687398,42.4598073 C554.018313,42.4598073 558.286848,44.1952834 561.493003,47.6694276 C564.695967,51.1435717 566.297448,55.7885544 566.297448,61.6106916 L566.224101,62.8548773 L537.827939,62.8548773 C538.025705,66.4789757 539.234779,69.3406029 541.461613,71.4429508 C543.685256,73.5484906 546.28847,74.5981026 549.274516,74.5981026 C554.120456,74.5981026 557.393642,72.5436341 559.106775,68.4345613 L565.123554,70.9293167 C563.952715,73.7175967 562.016281,76.0560139 559.326884,77.9382523 C556.637487,79.8172987 553.332449,80.7616438 549.421278,80.7616438 L549.42121,80.7585198 Z M508.78734,80.7617237 C504.974984,80.7617237 501.242427,79.5111421 497.599177,77.0195787 C493.955927,74.5248233 491.56963,71.0283354 490.443547,66.5269231 L496.610212,64.0321677 C497.315703,66.8762051 498.893008,69.4284158 501.1212,71.3314359 C503.392654,73.3125572 505.948057,74.3047138 508.784148,74.3047138 C511.722383,74.3047138 514.226646,73.5326667 516.306718,71.9917644 C518.386722,70.4540541 519.426758,68.3612821 519.426758,65.7197644 C519.426758,62.7847221 518.386722,60.522912 516.306718,58.9309383 C514.226714,57.3422245 510.937568,55.8619695 506.439347,54.4933652 C501.791173,53.025878 498.266025,51.1308718 495.870152,48.8052225 C493.477472,46.4827651 492.277906,43.5126112 492.277906,39.8885128 C492.277906,36.124036 493.770929,32.8444657 496.757042,30.0562536 C499.736704,27.2679737 503.625599,25.8770256 508.420536,25.8770256 C512.870877,25.8770256 516.491784,26.9904089 519.280064,29.2171753 C522.068276,31.4407498 523.873975,33.8749258 524.709793,36.5164435 L518.546252,39.0845461 C518.109225,37.4224172 517.014994,35.8815828 515.282642,34.4619071 C513.543974,33.0422315 511.307631,32.3340236 508.570423,32.3340236 C505.973593,32.3340236 503.762718,33.0549993 501.928359,34.4970187 C500.094,35.9421622 499.175191,37.7414775 499.175191,39.8885128 C499.175191,41.8504823 500.020585,43.4966514 501.708249,44.842912 C503.395914,46.1891726 505.877902,47.4015066 509.154212,48.4765863 C511.74785,49.3092128 513.907653,50.1163714 515.649514,50.8979945 C517.511242,51.755885 519.281286,52.8001317 520.932549,54.0148427 C522.715904,55.3100998 524.058973,56.9243493 524.968207,58.8607831 C525.871056,60.7909009 526.324043,63.0272432 526.324043,65.5730021 C526.324043,68.1156369 525.800833,70.3902148 524.748029,72.3968718 C523.775364,74.3119127 522.337216,75.9519016 520.565609,77.166273 C517.086507,79.5139265 512.984294,80.766194 508.78734,80.7617237 M466.957096,74.5950464 C470.134592,74.5950464 472.836689,73.4242079 475.063455,71.0730229 C477.28703,68.7250298 478.403605,65.57307 478.403605,61.6108274 C478.403605,57.6485849 477.28703,54.4902412 475.063455,52.1454401 C472.836689,49.797447 470.134524,48.6202245 466.960288,48.6202245 C463.827548,48.6202245 461.134959,49.806955 458.889041,52.1804837 C456.633547,54.5540125 455.507396,57.6995884 455.507396,61.6107595 C455.507396,65.5219986 456.633547,68.6675745 458.889041,71.0379113 C461.134959,73.4114401 463.827548,74.5950464 466.960288,74.5950464 M465.853289,80.7617117 C461.205182,80.7617117 457.194992,78.9241608 453.826115,75.2553749 C450.44447,71.589781 448.760065,67.0405572 448.760065,61.6107595 C448.760065,56.1809619 450.44447,51.631738 453.822991,47.9597602 C457.19506,44.2909744 461.205182,42.4598073 465.853289,42.4598073 C468.596881,42.4598073 471.053401,43.0435967 473.229096,44.2208191 C475.404859,45.3948496 477.031877,46.8623368 478.110148,48.6233486 L478.403673,48.6233486 L478.110148,43.6338378 L478.110148,27.0510561 L484.857547,27.0510561 L484.857547,79.5844893 L478.403741,79.5844893 L478.403741,74.5949785 L478.110284,74.5949785 C477.032012,76.3591823 475.404995,77.8266694 473.229232,79.0006999 C471.050209,80.1715385 468.59369,80.7617117 465.853289,80.7617117 M414.640581,59.039465 L432.107128,59.039465 L423.518987,35.339289 L423.22553,35.339289 L414.640581,59.042657 L414.640581,59.039465 Z M399.742204,79.5845572 L419.553484,27.051124 L427.190897,27.051124 L447.002177,79.5845572 L439.517911,79.5845572 L434.451861,65.3561525 L412.365867,65.3561525 L407.229594,79.5845572 L399.745328,79.5845572 L399.742204,79.5845572 Z" id="Shape"></path>
            <path d="M351.515541,61.0333541 L368.627917,53.9255357 C367.68364,51.5328552 364.860248,49.8676022 361.52329,49.8676022 C357.245179,49.8676022 351.301748,53.638395 351.515541,61.0333541 M371.601195,67.9210631 L378.125224,72.2693292 C376.026068,75.3893694 370.947182,80.7553278 362.174043,80.7553278 C351.301748,80.7553278 343.447418,72.3426764 343.447418,61.6139515 C343.447418,50.2248302 351.371971,42.4693832 361.232958,42.4693832 C371.167292,42.4693832 376.026,50.3747845 377.617974,54.6528954 L378.488904,56.8285904 L352.893721,67.413745 C354.852499,71.2579529 357.896,73.2136064 362.174111,73.2136064 C366.448962,73.2136064 369.4255,71.1080665 371.601263,67.9178032 M330.121863,79.5940651 L338.531322,79.5940651 L338.531322,23.3280748 L330.121863,23.3280748 L330.121863,79.5940651 Z M316.400708,61.6841746 C316.400708,54.943228 311.902488,50.0111046 306.176042,50.0111046 C300.379372,50.0111046 295.517472,54.9431601 295.517472,61.6841746 C295.517472,68.354966 300.379372,73.2136743 306.17285,73.2136743 C311.90242,73.2136743 316.400708,68.3548981 316.400708,61.6841746 Z M323.792475,43.6306459 L323.792475,77.9989674 C323.792475,92.1380651 315.456431,97.9410506 305.595444,97.9410506 C296.311863,97.9410506 290.728987,91.7041622 288.629831,86.6285364 L295.951375,83.5818434 C297.2594,86.6986916 300.449595,90.3961372 305.595444,90.3961372 C311.902488,90.3961372 315.820111,86.4817062 315.820111,79.1601622 L315.820111,76.4038018 L315.529778,76.4038018 C313.644348,78.7230672 310.017058,80.7552599 305.448682,80.7552599 C295.878028,80.7552599 287.104888,72.4160236 287.104888,61.6841067 C287.104888,50.8820347 295.878028,42.4693832 305.448682,42.4693832 C310.017125,42.4693832 313.644348,44.4983839 315.529778,46.7474941 L315.816919,46.7474941 L315.816919,43.6306459 C315.816851,43.6306459 323.792475,43.6306459 323.792475,43.6306459 Z M232.009669,61.6139515 C232.009669,54.7230506 227.096697,50.0111046 221.40217,50.0111046 C215.707576,50.0111046 210.794672,54.7262426 210.794672,61.6139515 C210.794672,68.4282453 215.707644,73.2136064 221.40217,73.2136064 C227.096765,73.2136064 232.009669,68.4283132 232.009669,61.6139515 M240.265982,61.6139515 C240.265982,72.633009 231.795943,80.7553278 221.40217,80.7553278 C211.008398,80.7553278 202.538359,72.633009 202.538359,61.6139515 C202.538359,50.5183548 211.008398,42.4725752 221.40217,42.4725752 C231.795875,42.4725752 240.265982,50.5151629 240.265982,61.6139515 M274.302475,61.6139515 C274.302475,54.7230506 269.389504,50.0111046 263.694977,50.0111046 C258.000383,50.0111046 253.087479,54.7262426 253.087479,61.6139515 C253.087479,68.4282453 258.00045,73.2136064 263.694977,73.2136064 C269.389504,73.2136064 274.302475,68.4283132 274.302475,61.6139515 M282.561981,61.6139515 C282.561981,72.633009 274.08875,80.7553278 263.694977,80.7553278 C253.301204,80.7553278 244.831166,72.633009 244.831166,61.6139515 C244.831166,50.5183548 253.301204,42.4725752 263.694977,42.4725752 C274.08875,42.4725752 282.561981,50.5151629 282.561981,61.6139515 M170.214998,80.7553278 C153.833174,80.7553278 140.054564,67.4138129 140.054564,51.028797 C140.054564,34.6405891 153.833174,21.2958822 170.21819,21.2958822 C179.284786,21.2958822 185.735468,24.8529494 190.594176,29.4947401 L184.864538,35.2211864 C181.38401,31.9575759 176.672064,29.421325 170.21819,29.421325 C158.254855,29.421325 148.897927,39.0653943 148.897927,51.028729 C148.897927,62.9920638 158.254855,72.6329411 170.21819,72.6329411 C177.976829,72.6329411 182.398442,69.5160929 185.228218,66.6863853 C187.547483,64.3703119 189.072426,61.0332862 189.649899,56.4649106 L170.215066,56.4649106 L170.215066,48.3457838 L197.548916,48.3457838 C197.842441,49.7941192 197.986011,51.5359792 197.986011,53.4182176 C197.986011,59.5115357 196.317498,67.0532571 190.954732,72.4192155 C185.732208,77.8553971 179.061484,80.7553278 170.214998,80.7553278" id="Shape"></path>
            <path d="M62.7585752,24.1096979 C67.2504116,16.4212821 64.5833583,6.59533888 56.8024435,2.1545738 C49.0182689,-2.27987526 39.0679751,0.348874567 34.5761386,8.03729037 C34.3781691,8.38175052 34.1919487,8.73293416 34.017817,9.09009425 L18.8323673,35.0681081 C18.4963964,35.5845267 18.1854858,36.1168371 17.90079,36.6632058 L2.13148302,63.8758295 L30.3107277,79.6706043 L46.0002356,52.687666 C46.342115,52.1749148 46.6532294,51.6422647 46.931745,51.0925683 L62.1171947,25.1113624 C62.3374401,24.7859861 62.5576175,24.4542259 62.7585752,24.1096979" id="Path"></path>
            <path d="M30.4415981,79.5877491 C25.9752973,87.4005835 15.900517,90.2749785 8.16422176,85.7672502 C0.424734581,81.256194 -2.3220499,71.4749383 2.14744283,63.6652959 C6.61693555,55.8556535 16.602341,52.9684906 24.3418281,57.4762869 C32.0813153,61.9872751 34.9078309,71.7780388 30.4415301,79.5845572" id="Path"></path>
            <path d="M91.2504962,29.2523548 C83.5586168,24.8194678 73.7302287,27.4445502 69.2730284,35.1223714 L53.1846611,62.9219764 C48.7521137,70.5841095 51.370201,80.3887277 59.032334,84.8212751 C59.0461885,84.829289 59.0599751,84.8372349 59.0738295,84.8451809 C66.767203,89.2796979 76.5983077,86.6528496 81.0544893,78.9719723 L97.1395967,51.1755593 C101.571465,43.5110492 98.9509328,33.7049369 91.2864227,29.2730686 C91.2744699,29.2661414 91.2624491,29.2592141 91.2504962,29.2523548" id="Path"></path>
        </g>
    </g>
</svg>