<?xml version="1.0" encoding="UTF-8"?>
<svg width="273px" height="98px" viewBox="0 0 273 98" version="1.1" xmlns="http://www.w3.org/2000/svg" xmlns:xlink="http://www.w3.org/1999/xlink">
    <!-- Generator: Sketch 64 (93537) - https://sketch.com -->
    <title>download</title>
    <desc>Created with Sketch.</desc>
    <g id="Page-1" stroke="none" stroke-width="1" fill="none" fill-rule="evenodd">
        <g id="download" transform="translate(-1.000000, 0.000000)" fill="#9FA6B2" fill-rule="nonzero">
            <path d="M1.96,0 L1.96,75.9876923 L11.76,76.0253846 L11.76,39.8407692 L35.3176923,39.8407692 L35.3176923,30.2669231 L11.7223077,30.2669231 L11.7223077,9.53615385 L42.4415385,9.53615385 L42.4415385,0 L1.96,0 Z M60.0061538,15.4538462 C63.5450246,15.4538462 66.4138462,12.5850246 66.4138462,9.04615385 C66.4138462,5.5072831 63.5450246,2.63846154 60.0061538,2.63846154 C56.4672831,2.63846154 53.5984615,5.5072831 53.5984615,9.04615385 C53.5984615,12.5850246 56.4672831,15.4538462 60.0061538,15.4538462 Z M55.0684615,24.99 L55.0684615,76.0253846 L64.8684615,76.0253846 L64.8684615,24.99 L55.0684615,24.99 L55.0684615,24.99 Z" id="Shape"></path>
            <path d="M101.090769,23.52 C88.1246154,23.52 79.0784615,34.4884615 79.0784615,47.53 C79.0784615,60.5715385 88.1246154,71.54 101.090769,71.54 C107.046154,71.54 111.946154,69.2784615 115.526923,65.5092308 L115.526923,72.2938462 C115.577241,76.3884999 113.988406,80.3333205 111.114147,83.250057 C108.239887,86.1667936 104.318797,87.8133248 100.223846,87.8230769 C97.0953846,87.8230769 94.0046154,86.6169231 91.5546154,84.8830769 L86.6546154,93.3638462 C94.3730818,98.3530437 104.203056,98.7179953 112.270226,94.3148616 C120.337396,89.911728 125.347895,81.4467129 125.326989,72.2561538 L125.326989,25.0276923 L115.526923,25.0276923 L115.526923,29.5884615 C111.946154,25.8192308 107.046154,23.5576923 101.090769,23.5576923 L101.090769,23.52 Z M88.8407692,47.53 C88.8407692,39.4261538 95.0223077,33.0561538 102.183846,33.0561538 C109.345385,33.0561538 115.489231,39.4638462 115.489231,47.53 C115.489231,55.6338462 109.307692,61.9661538 102.183846,61.9661538 C95.0223077,61.9661538 88.8407692,55.6338462 88.8407692,47.53 L88.8407692,47.53 Z" id="Shape"></path>
            <path d="M160.531538,33.0561538 C154.69939,33.1591717 150.031556,37.9277509 150.053077,43.7607692 L150.053077,76.0253846 L140.253077,76.0253846 L140.253077,24.99 L150.053077,24.99 L150.053077,29.6638462 C153.02702,25.7223258 157.705366,23.4391806 162.642308,23.52 C169.502308,23.52 174.779231,26.9123077 177.794615,32.1138462 C181.211589,26.8172795 187.058799,23.58928 193.361538,23.52 C204.480769,23.52 211.453846,32.4907692 211.453846,43.61 L211.453846,76.0253846 L201.729231,76.0253846 L201.729231,43.7230769 C201.750752,37.8900586 197.082917,33.1214794 191.250769,33.0184615 C185.418621,33.1214794 180.750786,37.8900586 180.772308,43.7230769 L180.772308,75.9876923 L170.972308,75.9876923 L170.972308,43.7230769 C170.994175,37.9044488 166.348901,33.1417845 160.531538,33.0184615 L160.531538,33.0561538 Z" id="Path"></path>
            <path d="M263.582308,30.7946154 C259.084743,26.1048121 252.854631,23.4737145 246.356923,23.52 C231.807692,23.52 221.48,35.8076923 221.48,50.5076923 C221.48,65.2076923 231.807692,77.4956907 246.356923,77.4956907 C252.851972,77.5283344 259.077037,74.8993683 263.582308,70.2207692 L263.582308,76.0253846 L273.344615,76.0253846 L273.344615,24.99 L263.544615,24.99 L263.544615,30.7946154 L263.582308,30.7946154 Z M231.242308,50.5076923 C231.242308,40.7830769 238.705385,33.0561538 247.412308,33.0561538 C256.081538,33.0561538 263.582308,40.7830769 263.582308,50.5076923 C263.582308,60.2323077 256.119231,67.9215385 247.412308,67.9215385 C238.743077,67.9215385 231.242308,60.2323077 231.242308,50.5076923 L231.242308,50.5076923 Z" id="Shape"></path>
        </g>
    </g>
</svg>