<?xml version="1.0" encoding="UTF-8"?>
<svg width="218px" height="19px" viewBox="0 0 218 19" version="1.1" xmlns="http://www.w3.org/2000/svg" xmlns:xlink="http://www.w3.org/1999/xlink">
    <!-- Generator: Sketch 64 (93537) - https://sketch.com -->
    <title>DimensionalSoftware</title>
    <desc>Created with Sketch.</desc>
    <g id="Page-1" stroke="none" stroke-width="1" fill="none" fill-rule="evenodd">
        <g id="Branding" transform="translate(-21.000000, -72.000000)" fill="#008483" fill-rule="nonzero">
            <path d="M29.84,90 C30.576,90 31.336,89.948 32.12,89.844 C32.904,89.74 33.664,89.56 34.4,89.304 C35.136,89.048 35.832,88.704 36.488,88.272 C37.144,87.84 37.72,87.296 38.216,86.64 C38.712,85.984 39.104,85.2 39.392,84.288 C39.68,83.376 39.824,82.32 39.824,81.12 C39.824,80.08 39.692,79.156 39.428,78.348 C39.164,77.54 38.812,76.828 38.372,76.212 C37.932,75.596 37.416,75.064 36.824,74.616 C36.232,74.168 35.6,73.8 34.928,73.512 C34.416,73.288 33.896,73.12 33.368,73.008 C32.84,72.896 32.312,72.816 31.784,72.768 C31.256,72.72 30.728,72.696 30.2,72.696 L28.664,72.696 L28.664,72.696 C26.872,72.696 25.344,72.7 24.08,72.708 C22.816,72.716 21.848,72.72 21.176,72.72 L21.176,72.96 C21.592,73.008 21.968,73.088 22.304,73.2 C22.64,73.312 22.928,73.512 23.168,73.8 C23.264,73.912 23.336,74.068 23.384,74.268 C23.432,74.468 23.468,74.692 23.492,74.94 C23.516,75.188 23.528,75.456 23.528,75.744 L23.528,82.68 L23.528,82.68 C23.528,83.16 23.524,83.628 23.516,84.084 C23.508,84.54 23.5,84.96 23.492,85.344 C23.484,85.728 23.48,86.032 23.48,86.256 C23.48,86.512 23.472,86.776 23.456,87.048 C23.44,87.32 23.416,87.576 23.384,87.816 C23.352,88.056 23.316,88.272 23.276,88.464 C23.236,88.656 23.176,88.792 23.096,88.872 C22.904,89.096 22.62,89.288 22.244,89.448 C21.868,89.608 21.48,89.712 21.08,89.76 L21.08,90 L29.84,90 Z M29.288,89.64 C28.856,89.64 28.396,89.596 27.908,89.508 C27.42,89.42 27.016,89.216 26.696,88.896 C26.6,88.8 26.516,88.652 26.444,88.452 C26.372,88.252 26.32,88.028 26.288,87.78 C26.256,87.532 26.228,87.276 26.204,87.012 C26.18,86.748 26.168,86.504 26.168,86.28 C26.154,85.818 26.146125,85.239625 26.144375,84.544875 L26.14496,80.32128 C26.14752,78.88256 26.1552,77.6128 26.168,76.512 C26.184,75.136 26.232,74.056 26.312,73.272 C26.424,73.24 26.572,73.216 26.756,73.2 C26.94,73.184 27.14,73.164 27.356,73.14 C27.572,73.116 27.792,73.1 28.016,73.092 C28.24,73.084 28.448,73.08 28.64,73.08 C29.2,73.08 29.672,73.1 30.056,73.14 C30.44,73.18 30.792,73.232 31.112,73.296 C31.944,73.44 32.712,73.76 33.416,74.256 C34.12,74.752 34.728,75.356 35.24,76.068 C35.752,76.78 36.152,77.576 36.44,78.456 C36.728,79.336 36.872,80.24 36.872,81.168 C36.872,83.264 36.444,85.028 35.588,86.46 C34.732,87.892 33.44,88.856 31.712,89.352 C31.344,89.464 30.948,89.54 30.524,89.58 C30.1,89.62 29.688,89.64 29.288,89.64 Z M43.496,75.912 C43.864,75.912 44.172,75.788 44.42,75.54 C44.668,75.292 44.792,74.984 44.792,74.616 C44.792,74.248 44.668,73.944 44.42,73.704 C44.172,73.464 43.864,73.344 43.496,73.344 C43.128,73.344 42.82,73.464 42.572,73.704 C42.324,73.944 42.2,74.248 42.2,74.616 C42.2,74.968 42.328,75.272 42.584,75.528 C42.84,75.784 43.144,75.912 43.496,75.912 Z M46.136,90 L46.136,89.76 C45.976,89.728 45.812,89.708 45.644,89.7 C45.476,89.692 45.32,89.672 45.176,89.64 C45.032,89.608 44.908,89.556 44.804,89.484 C44.7,89.412 44.632,89.296 44.6,89.136 L44.6,78.408 L44.456,78.408 L41.216,79.464 L41.216,79.608 C41.44,79.688 41.652,79.776 41.852,79.872 C42.052,79.968 42.224,80.064 42.368,80.16 C42.48,80.24 42.548,80.328 42.572,80.424 C42.596,80.52 42.608,80.632 42.608,80.76 L42.608,88.992 C42.608,89.136 42.556,89.256 42.452,89.352 C42.348,89.448 42.22,89.524 42.068,89.58 C41.916,89.636 41.744,89.676 41.552,89.7 C41.36,89.724 41.168,89.744 40.976,89.76 L40.976,90 L46.136,90 Z M51.992,90 L51.992,89.76 C51.832,89.728 51.68,89.708 51.536,89.7 C51.392,89.692 51.26,89.672 51.14,89.64 C51.02,89.608 50.92,89.556 50.84,89.484 C50.76,89.412 50.704,89.296 50.672,89.136 L50.672,81.264 C51.088,80.816 51.464,80.48 51.8,80.256 C52.136,80.032 52.568,79.92 53.096,79.92 C53.928,79.92 54.508,80.188 54.836,80.724 C55.164,81.26 55.328,82 55.328,82.944 L55.328,89.088 C55.328,89.344 55.2,89.508 54.944,89.58 C54.688,89.652 54.344,89.704 53.912,89.736 L53.912,90 L58.64,90 L58.64,89.784 C58.496,89.768 58.348,89.748 58.196,89.724 C58.044,89.7 57.904,89.668 57.776,89.628 C57.648,89.588 57.544,89.528 57.464,89.448 C57.384,89.368 57.344,89.272 57.344,89.16 L57.344,81.408 C57.728,80.976 58.096,80.62 58.448,80.34 C58.8,80.06 59.24,79.92 59.768,79.92 C60.6,79.92 61.18,80.196 61.508,80.748 C61.836,81.3 62,82.04 62,82.968 L62,89.088 C62,89.344 61.888,89.508 61.664,89.58 C61.44,89.652 61.112,89.704 60.68,89.736 L60.68,90 L65.408,90 L65.408,89.784 C65.264,89.768 65.112,89.748 64.952,89.724 C64.792,89.7 64.644,89.668 64.508,89.628 C64.372,89.588 64.256,89.528 64.16,89.448 C64.064,89.368 64.016,89.272 64.016,89.16 L64.016,82.008 C64.016,80.952 63.78,80.088 63.308,79.416 C62.836,78.744 62.136,78.408 61.208,78.408 C60.776,78.408 60.356,78.496 59.948,78.672 C59.54,78.848 59.168,79.076 58.832,79.356 C58.496,79.636 58.2,79.94 57.944,80.268 C57.688,80.596 57.488,80.904 57.344,81.192 L57.272,81.192 C57.16,80.344 56.868,79.668 56.396,79.164 C55.924,78.66 55.304,78.408 54.536,78.408 C54.104,78.408 53.692,78.492 53.3,78.66 C52.908,78.828 52.544,79.036 52.208,79.284 C51.872,79.532 51.576,79.812 51.32,80.124 C51.064,80.436 50.856,80.736 50.696,81.024 L50.648,81 L50.648,78.408 L50.504,78.408 L47.36,79.536 L47.36,79.728 C47.552,79.808 47.744,79.9 47.936,80.004 C48.128,80.108 48.296,80.2 48.44,80.28 C48.552,80.36 48.62,80.432 48.644,80.496 C48.668,80.56 48.68,80.656 48.68,80.784 L48.68,88.992 C48.68,89.248 48.548,89.432 48.284,89.544 C48.02,89.656 47.704,89.728 47.336,89.76 L47.336,90 L51.992,90 Z M71.576,90.024 C72.232,90.024 72.828,89.904 73.364,89.664 C73.9,89.424 74.36,89.12 74.744,88.752 C75.128,88.384 75.432,87.98 75.656,87.54 C75.88,87.1 76.024,86.704 76.088,86.352 L75.896,86.304 C75.704,86.896 75.308,87.396 74.708,87.804 C74.108,88.212 73.408,88.416 72.608,88.416 C71.872,88.416 71.224,88.28 70.664,88.008 C70.104,87.736 69.64,87.364 69.272,86.892 C68.904,86.42 68.624,85.876 68.432,85.26 C68.24,84.644 68.144,84 68.144,83.328 C68.144,83.152 68.152,82.98 68.168,82.812 C68.184,82.644 68.192,82.496 68.192,82.368 L75.896,82.368 C75.848,81.696 75.696,81.112 75.44,80.616 C75.184,80.12 74.852,79.708 74.444,79.38 C74.036,79.052 73.556,78.808 73.004,78.648 C72.452,78.488 71.864,78.408 71.24,78.408 C70.472,78.408 69.772,78.572 69.14,78.9 C68.508,79.228 67.972,79.656 67.532,80.184 C67.092,80.712 66.752,81.308 66.512,81.972 C66.272,82.636 66.152,83.304 66.152,83.976 C66.152,84.808 66.28,85.596 66.536,86.34 C66.792,87.084 67.156,87.732 67.628,88.284 C68.1,88.836 68.672,89.264 69.344,89.568 C70.016,89.872 70.76,90.024 71.576,90.024 Z M69.224,82.032 L68.24,82.032 L68.24,82.032 C68.272,81.84 68.36,81.564 68.504,81.204 C68.648,80.844 68.852,80.488 69.116,80.136 C69.38,79.784 69.692,79.476 70.052,79.212 C70.412,78.948 70.816,78.816 71.264,78.816 C71.952,78.816 72.5,79.028 72.908,79.452 C73.316,79.876 73.52,80.384 73.52,80.976 C73.52,81.2 73.492,81.368 73.436,81.48 C73.38,81.592 73.296,81.712 73.184,81.84 C73.024,81.904 72.84,81.944 72.632,81.96 C72.424,81.976 72.2,81.984 71.96,81.984 C71.592,81.984 71.256,81.988 70.952,81.996 C70.648,82.004 70.356,82.012 70.076,82.02 C69.796,82.028 69.512,82.032 69.224,82.032 Z M81.44,90 L81.44,89.76 C81.28,89.728 81.128,89.708 80.984,89.7 C80.84,89.692 80.712,89.672 80.6,89.64 C80.488,89.608 80.392,89.556 80.312,89.484 C80.232,89.412 80.176,89.296 80.144,89.136 L80.144,81.264 C80.576,80.832 80.968,80.504 81.32,80.28 C81.672,80.056 82.112,79.944 82.64,79.944 C83.472,79.944 84.064,80.228 84.416,80.796 C84.768,81.364 84.944,82.112 84.944,83.04 L84.944,89.088 C84.944,89.344 84.816,89.508 84.56,89.58 C84.304,89.652 83.96,89.704 83.528,89.736 L83.528,90 L88.424,90 L88.424,89.784 C88.28,89.768 88.124,89.748 87.956,89.724 C87.788,89.7 87.632,89.668 87.488,89.628 C87.344,89.588 87.22,89.528 87.116,89.448 C87.012,89.368 86.96,89.272 86.96,89.16 L86.96,82.104 C86.96,81.016 86.712,80.128 86.216,79.44 C85.72,78.752 85.008,78.408 84.08,78.408 C83.648,78.408 83.232,78.492 82.832,78.66 C82.432,78.828 82.064,79.04 81.728,79.296 C81.392,79.552 81.092,79.836 80.828,80.148 C80.564,80.46 80.344,80.752 80.168,81.024 L80.12,81 L80.12,78.408 L79.976,78.408 L76.832,79.536 L76.832,79.68 C77.024,79.76 77.216,79.852 77.408,79.956 C77.6,80.06 77.768,80.152 77.912,80.232 C78.024,80.312 78.092,80.384 78.116,80.448 C78.14,80.512 78.152,80.608 78.152,80.736 L78.152,88.992 C78.152,89.248 78.02,89.432 77.756,89.544 C77.492,89.656 77.176,89.728 76.808,89.76 L76.808,90 L81.44,90 Z M93.008,90.048 C93.6,90.048 94.164,89.984 94.7,89.856 C95.236,89.728 95.712,89.52 96.128,89.232 C96.544,88.944 96.876,88.572 97.124,88.116 C97.372,87.66 97.496,87.12 97.496,86.496 C97.496,85.68 97.244,84.992 96.74,84.432 C96.236,83.872 95.624,83.504 94.904,83.328 C94.6,83.248 94.24,83.164 93.824,83.076 C93.408,82.988 93.024,82.904 92.672,82.824 C92.16,82.696 91.736,82.504 91.4,82.248 C91.064,81.992 90.896,81.568 90.896,80.976 C90.896,80.608 90.96,80.284 91.088,80.004 C91.216,79.724 91.38,79.492 91.58,79.308 C91.78,79.124 92.012,78.984 92.276,78.888 C92.54,78.792 92.808,78.744 93.08,78.744 C93.528,78.744 93.924,78.824 94.268,78.984 C94.612,79.144 94.92,79.372 95.192,79.668 C95.464,79.964 95.712,80.316 95.936,80.724 C96.16,81.132 96.384,81.576 96.608,82.056 L96.8,82.008 L96.512,79.032 C96.048,78.856 95.56,78.708 95.048,78.588 C94.536,78.468 93.944,78.408 93.272,78.408 C92.744,78.408 92.248,78.484 91.784,78.636 C91.32,78.788 90.912,79.008 90.56,79.296 C90.208,79.584 89.928,79.928 89.72,80.328 C89.512,80.728 89.408,81.176 89.408,81.672 C89.408,82.392 89.596,83.008 89.972,83.52 C90.348,84.032 90.84,84.392 91.448,84.6 C91.768,84.712 92.128,84.816 92.528,84.912 C92.928,85.008 93.344,85.096 93.776,85.176 C94.32,85.288 94.748,85.508 95.06,85.836 C95.372,86.164 95.528,86.576 95.528,87.072 C95.528,87.984 95.3,88.66 94.844,89.1 C94.388,89.54 93.776,89.76 93.008,89.76 C92.48,89.76 92.024,89.644 91.64,89.412 C91.256,89.18 90.928,88.884 90.656,88.524 C90.384,88.164 90.152,87.772 89.96,87.348 C89.768,86.924 89.608,86.52 89.48,86.136 L89.288,86.136 L89.288,89.304 C89.816,89.544 90.392,89.728 91.016,89.856 C91.64,89.984 92.304,90.048 93.008,90.048 Z M100.76,75.912 C101.128,75.912 101.436,75.788 101.684,75.54 C101.932,75.292 102.056,74.984 102.056,74.616 C102.056,74.248 101.932,73.944 101.684,73.704 C101.436,73.464 101.128,73.344 100.76,73.344 C100.392,73.344 100.084,73.464 99.836,73.704 C99.588,73.944 99.464,74.248 99.464,74.616 C99.464,74.968 99.592,75.272 99.848,75.528 C100.104,75.784 100.408,75.912 100.76,75.912 Z M103.4,90 L103.4,89.76 C103.24,89.728 103.076,89.708 102.908,89.7 C102.74,89.692 102.584,89.672 102.44,89.64 C102.296,89.608 102.172,89.556 102.068,89.484 C101.964,89.412 101.896,89.296 101.864,89.136 L101.864,78.408 L101.72,78.408 L98.48,79.464 L98.48,79.608 C98.704,79.688 98.916,79.776 99.116,79.872 C99.316,79.968 99.488,80.064 99.632,80.16 C99.744,80.24 99.812,80.328 99.836,80.424 C99.86,80.52 99.872,80.632 99.872,80.76 L99.872,88.992 C99.872,89.136 99.82,89.256 99.716,89.352 C99.612,89.448 99.484,89.524 99.332,89.58 C99.18,89.636 99.008,89.676 98.816,89.7 C98.624,89.724 98.432,89.744 98.24,89.76 L98.24,90 L103.4,90 Z M110.096,90.072 C110.848,90.072 111.564,89.92 112.244,89.616 C112.924,89.312 113.52,88.888 114.032,88.344 C114.544,87.8 114.952,87.164 115.256,86.436 C115.56,85.708 115.712,84.936 115.712,84.12 C115.712,83.16 115.54,82.324 115.196,81.612 C114.852,80.9 114.412,80.308 113.876,79.836 C113.34,79.364 112.744,79.008 112.088,78.768 C111.432,78.528 110.784,78.408 110.144,78.408 C109.28,78.408 108.492,78.568 107.78,78.888 C107.068,79.208 106.46,79.632 105.956,80.16 C105.452,80.688 105.06,81.296 104.78,81.984 C104.5,82.672 104.36,83.384 104.36,84.12 C104.36,85.144 104.54,86.036 104.9,86.796 C105.26,87.556 105.724,88.18 106.292,88.668 C106.86,89.156 107.48,89.512 108.152,89.736 C108.824,89.96 109.472,90.072 110.096,90.072 Z M110.12,89.736 C109.496,89.736 108.96,89.588 108.512,89.292 C108.064,88.996 107.696,88.596 107.408,88.092 C107.12,87.588 106.912,87.008 106.784,86.352 C106.656,85.696 106.592,85 106.592,84.264 C106.592,83.592 106.668,82.932 106.82,82.284 C106.972,81.636 107.196,81.052 107.492,80.532 C107.788,80.012 108.144,79.592 108.56,79.272 C108.976,78.952 109.448,78.792 109.976,78.792 C110.632,78.792 111.184,78.964 111.632,79.308 C112.08,79.652 112.44,80.088 112.712,80.616 C112.984,81.144 113.18,81.72 113.3,82.344 C113.42,82.968 113.48,83.552 113.48,84.096 C113.48,84.656 113.42,85.264 113.3,85.92 C113.18,86.576 112.988,87.188 112.724,87.756 C112.46,88.324 112.116,88.796 111.692,89.172 C111.268,89.548 110.744,89.736 110.12,89.736 Z M121.472,90 L121.472,89.76 C121.312,89.728 121.16,89.708 121.016,89.7 C120.872,89.692 120.744,89.672 120.632,89.64 C120.52,89.608 120.424,89.556 120.344,89.484 C120.264,89.412 120.208,89.296 120.176,89.136 L120.176,81.264 C120.608,80.832 121,80.504 121.352,80.28 C121.704,80.056 122.144,79.944 122.672,79.944 C123.504,79.944 124.096,80.228 124.448,80.796 C124.8,81.364 124.976,82.112 124.976,83.04 L124.976,89.088 C124.976,89.344 124.848,89.508 124.592,89.58 C124.336,89.652 123.992,89.704 123.56,89.736 L123.56,90 L128.456,90 L128.456,89.784 C128.312,89.768 128.156,89.748 127.988,89.724 C127.82,89.7 127.664,89.668 127.52,89.628 C127.376,89.588 127.252,89.528 127.148,89.448 C127.044,89.368 126.992,89.272 126.992,89.16 L126.992,82.104 C126.992,81.016 126.744,80.128 126.248,79.44 C125.752,78.752 125.04,78.408 124.112,78.408 C123.68,78.408 123.264,78.492 122.864,78.66 C122.464,78.828 122.096,79.04 121.76,79.296 C121.424,79.552 121.124,79.836 120.86,80.148 C120.596,80.46 120.376,80.752 120.2,81.024 L120.152,81 L120.152,78.408 L120.008,78.408 L116.864,79.536 L116.864,79.68 C117.056,79.76 117.248,79.852 117.44,79.956 C117.632,80.06 117.8,80.152 117.944,80.232 C118.056,80.312 118.124,80.384 118.148,80.448 C118.172,80.512 118.184,80.608 118.184,80.736 L118.184,88.992 C118.184,89.248 118.052,89.432 117.788,89.544 C117.524,89.656 117.208,89.728 116.84,89.76 L116.84,90 L121.472,90 Z M137.456,90.024 C137.792,90.024 138.1,89.964 138.38,89.844 C138.66,89.724 138.904,89.548 139.112,89.316 C139.32,89.084 139.488,88.824 139.616,88.536 C139.744,88.248 139.816,87.952 139.832,87.648 L139.688,87.648 C139.624,87.888 139.504,88.084 139.328,88.236 C139.152,88.388 138.88,88.464 138.512,88.464 C138.192,88.464 137.908,88.348 137.66,88.116 C137.412,87.884 137.288,87.408 137.288,86.688 C137.288,86.144 137.292,85.644 137.3,85.188 C137.308,84.732 137.312,84.288 137.312,83.856 C137.312,83.424 137.316,82.976 137.324,82.512 C137.332,82.048 137.336,81.528 137.336,80.952 C137.336,80.68 137.328,80.404 137.312,80.124 C137.296,79.844 137.256,79.648 137.192,79.536 C137.032,79.216 136.768,78.948 136.4,78.732 C136.032,78.516 135.64,78.408 135.224,78.408 C135.016,78.408 134.748,78.456 134.42,78.552 C134.092,78.648 133.732,78.776 133.34,78.936 C132.948,79.096 132.536,79.288 132.104,79.512 C131.672,79.736 131.248,79.968 130.832,80.208 C130.704,80.288 130.556,80.376 130.388,80.472 C130.22,80.568 130.064,80.68 129.92,80.808 C129.776,80.936 129.656,81.08 129.56,81.24 C129.464,81.4 129.416,81.576 129.416,81.768 C129.416,82.008 129.508,82.22 129.692,82.404 C129.876,82.588 130.096,82.68 130.352,82.68 C130.624,82.68 130.876,82.592 131.108,82.416 C131.34,82.24 131.456,82.04 131.456,81.816 L131.456,80.736 C131.456,80.64 131.512,80.524 131.624,80.388 C131.736,80.252 131.888,80.116 132.08,79.98 C132.272,79.844 132.492,79.732 132.74,79.644 C132.988,79.556 133.24,79.512 133.496,79.512 C133.88,79.512 134.192,79.564 134.432,79.668 C134.672,79.772 134.86,79.888 134.996,80.016 C135.132,80.144 135.228,80.268 135.284,80.388 C135.34,80.508 135.368,80.584 135.368,80.616 L135.368,83.088 C135.208,83.184 135.012,83.292 134.78,83.412 C134.548,83.532 134.28,83.676 133.976,83.844 C133.672,84.012 133.316,84.216 132.908,84.456 C132.5,84.696 132.032,84.984 131.504,85.32 C130.976,85.656 130.532,86.032 130.172,86.448 C129.812,86.864 129.632,87.296 129.632,87.744 C129.632,88.16 129.7,88.512 129.836,88.8 C129.972,89.088 130.148,89.324 130.364,89.508 C130.58,89.692 130.82,89.82 131.084,89.892 C131.348,89.964 131.608,90 131.864,90 C132.296,90 132.692,89.932 133.052,89.796 C133.412,89.66 133.74,89.48 134.036,89.256 C134.332,89.032 134.588,88.792 134.804,88.536 C135.02,88.28 135.192,88.048 135.32,87.84 L135.368,87.864 C135.368,88.664 135.58,89.224 136.004,89.544 C136.428,89.864 136.912,90.024 137.456,90.024 Z M133.088,88.536 C132.624,88.536 132.248,88.368 131.96,88.032 C131.672,87.696 131.528,87.32 131.528,86.904 C131.528,86.488 131.676,86.116 131.972,85.788 C132.268,85.46 132.62,85.16 133.028,84.888 C133.436,84.616 133.856,84.364 134.288,84.132 C134.72,83.9 135.08,83.68 135.368,83.472 L135.368,87.168 C135.368,87.44 135.272,87.664 135.08,87.84 C134.808,88.112 134.512,88.296 134.192,88.392 C133.872,88.488 133.504,88.536 133.088,88.536 Z M145.184,90 L145.184,89.736 C144.88,89.704 144.616,89.684 144.392,89.676 C144.168,89.668 143.984,89.648 143.84,89.616 C143.696,89.584 143.588,89.528 143.516,89.448 C143.444,89.368 143.408,89.248 143.408,89.088 L143.408,72.648 L143.24,72.648 L139.808,73.776 L139.808,73.92 C140,74 140.24,74.124 140.528,74.292 C140.816,74.46 141.032,74.584 141.176,74.664 C141.288,74.744 141.356,74.816 141.38,74.88 C141.404,74.944 141.416,75.04 141.416,75.168 L141.416,88.968 C141.416,89.224 141.296,89.404 141.056,89.508 C140.816,89.612 140.328,89.688 139.592,89.736 L139.592,90 L145.184,90 Z M157.496,90.168 C158.408,90.168 159.248,90.064 160.016,89.856 C160.784,89.648 161.444,89.328 161.996,88.896 C162.548,88.464 162.98,87.944 163.292,87.336 C163.604,86.728 163.76,86.04 163.76,85.272 C163.76,84.136 163.46,83.188 162.86,82.428 C162.26,81.668 161.416,81.088 160.328,80.688 C160.024,80.576 159.732,80.472 159.452,80.376 L159.035,80.235 L159.035,80.235 L158.624,80.1 C158.352,80.012 158.076,79.92 157.796,79.824 C157.516,79.728 157.216,79.616 156.896,79.488 C156.08,79.184 155.416,78.776 154.904,78.264 C154.392,77.752 154.136,77.072 154.136,76.224 C154.136,75.68 154.228,75.196 154.412,74.772 C154.596,74.348 154.852,73.992 155.18,73.704 C155.508,73.416 155.892,73.2 156.332,73.056 C156.772,72.912 157.24,72.84 157.736,72.84 C158.36,72.84 158.928,72.968 159.44,73.224 C159.952,73.48 160.408,73.812 160.808,74.22 C161.208,74.628 161.56,75.092 161.864,75.612 C162.168,76.132 162.416,76.656 162.608,77.184 L162.872,77.184 L162.872,72.744 L162.608,72.744 C162.48,72.936 162.34,73.128 162.188,73.32 C162.036,73.512 161.936,73.608 161.888,73.608 C161.872,73.608 161.78,73.548 161.612,73.428 C161.444,73.308 161.196,73.176 160.868,73.032 C160.54,72.888 160.12,72.756 159.608,72.636 C159.096,72.516 158.48,72.456 157.76,72.456 C156.992,72.456 156.26,72.556 155.564,72.756 C154.868,72.956 154.256,73.264 153.728,73.68 C153.2,74.096 152.78,74.616 152.468,75.24 C152.156,75.864 152,76.608 152,77.472 C152,77.984 152.088,78.468 152.264,78.924 C152.44,79.38 152.672,79.796 152.96,80.172 C153.248,80.548 153.584,80.876 153.968,81.156 C154.352,81.436 154.752,81.656 155.168,81.816 C155.536,81.96 155.852,82.076 156.116,82.164 C156.38,82.252 156.636,82.34 156.884,82.428 C157.132,82.516 157.4,82.608 157.688,82.704 C157.976,82.8 158.312,82.92 158.696,83.064 C159.08,83.208 159.44,83.368 159.776,83.544 C160.112,83.72 160.404,83.932 160.652,84.18 C160.9,84.428 161.096,84.72 161.24,85.056 C161.384,85.392 161.456,85.784 161.456,86.232 C161.456,87.336 161.088,88.212 160.352,88.86 C159.616,89.508 158.656,89.832 157.472,89.832 C157.056,89.832 156.624,89.76 156.176,89.616 C155.728,89.472 155.368,89.328 155.096,89.184 C154.824,89.04 154.54,88.832 154.244,88.56 C153.948,88.288 153.668,87.972 153.404,87.612 C153.14,87.252 152.896,86.868 152.672,86.46 C152.448,86.052 152.264,85.632 152.12,85.2 L151.88,85.2 L151.952,89.976 L152.168,89.976 C152.296,89.8 152.44,89.616 152.6,89.424 C152.76,89.232 152.864,89.136 152.912,89.136 C152.96,89.136 153.076,89.192 153.26,89.304 C153.444,89.416 153.72,89.54 154.088,89.676 C154.456,89.812 154.92,89.928 155.48,90.024 C156.04,90.12 156.712,90.168 157.496,90.168 Z M171.08,90.072 C171.832,90.072 172.548,89.92 173.228,89.616 C173.908,89.312 174.504,88.888 175.016,88.344 C175.528,87.8 175.936,87.164 176.24,86.436 C176.544,85.708 176.696,84.936 176.696,84.12 C176.696,83.16 176.524,82.324 176.18,81.612 C175.836,80.9 175.396,80.308 174.86,79.836 C174.324,79.364 173.728,79.008 173.072,78.768 C172.416,78.528 171.768,78.408 171.128,78.408 C170.264,78.408 169.476,78.568 168.764,78.888 C168.052,79.208 167.444,79.632 166.94,80.16 C166.436,80.688 166.044,81.296 165.764,81.984 C165.484,82.672 165.344,83.384 165.344,84.12 C165.344,85.144 165.524,86.036 165.884,86.796 C166.244,87.556 166.708,88.18 167.276,88.668 C167.844,89.156 168.464,89.512 169.136,89.736 C169.808,89.96 170.456,90.072 171.08,90.072 Z M171.104,89.736 C170.48,89.736 169.944,89.588 169.496,89.292 C169.048,88.996 168.68,88.596 168.392,88.092 C168.104,87.588 167.896,87.008 167.768,86.352 C167.64,85.696 167.576,85 167.576,84.264 C167.576,83.592 167.652,82.932 167.804,82.284 C167.956,81.636 168.18,81.052 168.476,80.532 C168.772,80.012 169.128,79.592 169.544,79.272 C169.96,78.952 170.432,78.792 170.96,78.792 C171.616,78.792 172.168,78.964 172.616,79.308 C173.064,79.652 173.424,80.088 173.696,80.616 C173.968,81.144 174.164,81.72 174.284,82.344 C174.404,82.968 174.464,83.552 174.464,84.096 C174.464,84.656 174.404,85.264 174.284,85.92 C174.164,86.576 173.972,87.188 173.708,87.756 C173.444,88.324 173.1,88.796 172.676,89.172 C172.252,89.548 171.728,89.736 171.104,89.736 Z M183.248,90 L183.248,89.76 C183.008,89.728 182.772,89.704 182.54,89.688 C182.308,89.672 182.096,89.64 181.904,89.592 C181.712,89.544 181.552,89.48 181.424,89.4 C181.296,89.32 181.216,89.208 181.184,89.064 L181.184,79.704 L183.728,79.704 L184.04,78.648 L181.208,78.648 C181.208,78.072 181.212,77.556 181.22,77.1 C181.228,76.644 181.248,76.096 181.28,75.456 C181.312,74.96 181.396,74.564 181.532,74.268 C181.668,73.972 181.828,73.748 182.012,73.596 C182.196,73.444 182.376,73.344 182.552,73.296 C182.728,73.248 182.864,73.224 182.96,73.224 C183.152,73.288 183.324,73.416 183.476,73.608 C183.628,73.8 183.788,73.996 183.956,74.196 C184.124,74.396 184.308,74.572 184.508,74.724 C184.708,74.876 184.952,74.952 185.24,74.952 C185.544,74.952 185.788,74.832 185.972,74.592 C186.156,74.352 186.248,74.088 186.248,73.8 C186.248,73.576 186.188,73.388 186.068,73.236 C185.948,73.084 185.796,72.96 185.612,72.864 C185.428,72.768 185.22,72.696 184.988,72.648 C184.756,72.6 184.52,72.576 184.28,72.576 C183.768,72.576 183.268,72.644 182.78,72.78 C182.292,72.916 181.844,73.1 181.436,73.332 C181.028,73.564 180.664,73.836 180.344,74.148 C180.024,74.46 179.776,74.8 179.6,75.168 C179.424,75.52 179.316,76.02 179.276,76.668 C179.236,77.316 179.216,77.976 179.216,78.648 L177.728,78.648 L177.464,79.704 L179.192,79.704 L179.192,88.992 C179.192,89.12 179.12,89.228 178.976,89.316 C178.832,89.404 178.652,89.476 178.436,89.532 C178.22,89.588 177.996,89.636 177.764,89.676 C177.532,89.716 177.328,89.744 177.152,89.76 L177.152,90 L183.248,90 Z M188.264,90.048 C188.776,90.048 189.22,89.988 189.596,89.868 C189.972,89.748 190.3,89.58 190.58,89.364 C190.86,89.148 191.084,88.908 191.252,88.644 C191.42,88.38 191.552,88.128 191.648,87.888 L191.504,87.816 C191.28,88.136 191.016,88.372 190.712,88.524 C190.408,88.676 190.024,88.752 189.56,88.752 C189,88.752 188.544,88.568 188.192,88.2 C187.84,87.832 187.664,87.24 187.664,86.424 L187.664,80.112 L191.312,80.112 L192.056,78.648 L187.616,78.648 L187.616,76.56 L187.424,76.56 L183.944,79.848 L183.944,80.112 L185.696,80.112 C185.696,81.168 185.688,82.372 185.672,83.724 C185.656,85.076 185.648,86.504 185.648,88.008 C185.648,88.264 185.724,88.516 185.876,88.764 C186.028,89.012 186.224,89.236 186.464,89.436 C186.704,89.636 186.98,89.788 187.292,89.892 C187.604,89.996 187.928,90.048 188.264,90.048 Z M203.12,90.048 C203.2,90.048 203.272,90 203.336,89.904 C203.432,89.712 203.516,89.536 203.588,89.376 C203.66,89.216 203.736,89.052 203.816,88.884 C203.896,88.716 203.984,88.524 204.08,88.308 C204.176,88.092 204.296,87.832 204.44,87.528 C204.664,86.968 204.916,86.364 205.196,85.716 C205.476,85.068 205.756,84.416 206.036,83.76 C206.316,83.104 206.588,82.476 206.852,81.876 C207.116,81.276 207.344,80.752 207.536,80.304 C207.68,79.968 207.844,79.708 208.028,79.524 C208.212,79.34 208.4,79.204 208.592,79.116 C208.784,79.028 208.98,78.976 209.18,78.96 C209.38,78.944 209.576,78.928 209.768,78.912 L209.768,78.648 L205.376,78.648 L205.376,78.912 C205.52,78.928 205.68,78.944 205.856,78.96 C206.032,78.976 206.196,79.012 206.348,79.068 C206.5,79.124 206.628,79.212 206.732,79.332 C206.836,79.452 206.888,79.624 206.888,79.848 C206.888,79.992 206.832,80.248 206.72,80.616 C206.608,80.984 206.468,81.404 206.3,81.876 C206.132,82.348 205.94,82.852 205.724,83.388 C205.508,83.924 205.3,84.444 205.1,84.948 C204.9,85.452 204.712,85.908 204.536,86.316 C204.36,86.724 204.224,87.032 204.128,87.24 C203.984,86.856 203.82,86.412 203.636,85.908 C203.452,85.404 203.264,84.888 203.072,84.36 C202.88,83.832 202.692,83.304 202.508,82.776 C202.324,82.248 202.16,81.768 202.016,81.336 C201.872,80.904 201.756,80.54 201.668,80.244 C201.58,79.948 201.536,79.76 201.536,79.68 C201.536,79.504 201.604,79.372 201.74,79.284 C201.876,79.196 202.036,79.128 202.22,79.08 C202.404,79.032 202.592,78.996 202.784,78.972 C202.976,78.948 203.136,78.928 203.264,78.912 L203.264,78.648 L197.792,78.648 L197.792,78.912 C198.08,78.928 198.304,78.956 198.464,78.996 C198.624,79.036 198.748,79.084 198.836,79.14 C198.924,79.196 198.988,79.252 199.028,79.308 C199.068,79.364 199.112,79.416 199.16,79.464 C199.32,79.752 199.464,80.044 199.592,80.34 C199.72,80.636 199.84,80.944 199.952,81.264 C199.744,81.84 199.532,82.424 199.316,83.016 C199.1,83.608 198.888,84.176 198.68,84.72 C198.472,85.264 198.28,85.76 198.104,86.208 C197.928,86.656 197.776,87.04 197.648,87.36 C197.344,86.624 197.008,85.816 196.64,84.936 C196.272,84.056 195.928,83.224 195.608,82.44 C195.288,81.656 195.02,80.98 194.804,80.412 C194.588,79.844 194.464,79.496 194.432,79.368 C194.512,79.288 194.62,79.224 194.756,79.176 C194.892,79.128 195.036,79.084 195.188,79.044 C195.34,79.004 195.492,78.976 195.644,78.96 C195.796,78.944 195.928,78.928 196.04,78.912 L196.04,78.648 L190.64,78.648 L190.64,78.912 C191.168,78.928 191.524,78.996 191.708,79.116 C191.892,79.236 192.032,79.336 192.128,79.416 C192.256,79.624 192.38,79.86 192.5,80.124 C192.62,80.388 192.728,80.632 192.824,80.856 C193.496,82.472 194.128,84 194.72,85.44 C195.312,86.88 195.92,88.36 196.544,89.88 C196.608,89.992 196.68,90.048 196.76,90.048 C196.856,90.048 196.936,90 197,89.904 C197.16,89.552 197.296,89.224 197.408,88.92 C197.52,88.616 197.688,88.248 197.912,87.816 L200.192,81.864 C200.512,82.792 200.792,83.616 201.032,84.336 C201.272,85.056 201.496,85.72 201.704,86.328 C201.912,86.936 202.112,87.524 202.304,88.092 C202.496,88.66 202.696,89.256 202.904,89.88 C202.92,89.928 202.94,89.968 202.964,90 C202.988,90.032 203.04,90.048 203.12,90.048 Z M217.928,90.024 C218.264,90.024 218.572,89.964 218.852,89.844 C219.132,89.724 219.376,89.548 219.584,89.316 C219.792,89.084 219.96,88.824 220.088,88.536 C220.216,88.248 220.288,87.952 220.304,87.648 L220.16,87.648 C220.096,87.888 219.976,88.084 219.8,88.236 C219.624,88.388 219.352,88.464 218.984,88.464 C218.664,88.464 218.38,88.348 218.132,88.116 C217.884,87.884 217.76,87.408 217.76,86.688 C217.76,86.144 217.764,85.644 217.772,85.188 C217.78,84.732 217.784,84.288 217.784,83.856 C217.784,83.424 217.788,82.976 217.796,82.512 C217.804,82.048 217.808,81.528 217.808,80.952 C217.808,80.68 217.8,80.404 217.784,80.124 C217.768,79.844 217.728,79.648 217.664,79.536 C217.504,79.216 217.24,78.948 216.872,78.732 C216.504,78.516 216.112,78.408 215.696,78.408 C215.488,78.408 215.22,78.456 214.892,78.552 C214.564,78.648 214.204,78.776 213.812,78.936 C213.42,79.096 213.008,79.288 212.576,79.512 C212.144,79.736 211.72,79.968 211.304,80.208 C211.176,80.288 211.028,80.376 210.86,80.472 C210.692,80.568 210.536,80.68 210.392,80.808 C210.248,80.936 210.128,81.08 210.032,81.24 C209.936,81.4 209.888,81.576 209.888,81.768 C209.888,82.008 209.98,82.22 210.164,82.404 C210.348,82.588 210.568,82.68 210.824,82.68 C211.096,82.68 211.348,82.592 211.58,82.416 C211.812,82.24 211.928,82.04 211.928,81.816 L211.928,80.736 C211.928,80.64 211.984,80.524 212.096,80.388 C212.208,80.252 212.36,80.116 212.552,79.98 C212.744,79.844 212.964,79.732 213.212,79.644 C213.46,79.556 213.712,79.512 213.968,79.512 C214.352,79.512 214.664,79.564 214.904,79.668 C215.144,79.772 215.332,79.888 215.468,80.016 C215.604,80.144 215.7,80.268 215.756,80.388 C215.812,80.508 215.84,80.584 215.84,80.616 L215.84,83.088 C215.68,83.184 215.484,83.292 215.252,83.412 C215.02,83.532 214.752,83.676 214.448,83.844 C214.144,84.012 213.788,84.216 213.38,84.456 C212.972,84.696 212.504,84.984 211.976,85.32 C211.448,85.656 211.004,86.032 210.644,86.448 C210.284,86.864 210.104,87.296 210.104,87.744 C210.104,88.16 210.172,88.512 210.308,88.8 C210.444,89.088 210.62,89.324 210.836,89.508 C211.052,89.692 211.292,89.82 211.556,89.892 C211.82,89.964 212.08,90 212.336,90 C212.768,90 213.164,89.932 213.524,89.796 C213.884,89.66 214.212,89.48 214.508,89.256 C214.804,89.032 215.06,88.792 215.276,88.536 C215.492,88.28 215.664,88.048 215.792,87.84 L215.84,87.864 C215.84,88.664 216.052,89.224 216.476,89.544 C216.9,89.864 217.384,90.024 217.928,90.024 Z M213.56,88.536 C213.096,88.536 212.72,88.368 212.432,88.032 C212.144,87.696 212,87.32 212,86.904 C212,86.488 212.148,86.116 212.444,85.788 C212.74,85.46 213.092,85.16 213.5,84.888 C213.908,84.616 214.328,84.364 214.76,84.132 C215.192,83.9 215.552,83.68 215.84,83.472 L215.84,87.168 C215.84,87.44 215.744,87.664 215.552,87.84 C215.28,88.112 214.984,88.296 214.664,88.392 C214.344,88.488 213.976,88.536 213.56,88.536 Z M225.968,90 L225.968,89.76 C225.808,89.728 225.62,89.708 225.404,89.7 C225.188,89.692 224.98,89.672 224.78,89.64 C224.58,89.608 224.4,89.552 224.24,89.472 C224.08,89.392 223.976,89.28 223.928,89.136 L223.928,82.224 C224.024,81.984 224.136,81.732 224.264,81.468 C224.392,81.204 224.536,80.968 224.696,80.76 C224.856,80.552 225.028,80.38 225.212,80.244 C225.396,80.108 225.584,80.04 225.776,80.04 C226,80.04 226.176,80.084 226.304,80.172 C226.432,80.26 226.552,80.36 226.664,80.472 C226.776,80.584 226.908,80.684 227.06,80.772 C227.212,80.86 227.416,80.904 227.672,80.904 C227.944,80.904 228.184,80.788 228.392,80.556 C228.6,80.324 228.704,80.032 228.704,79.68 C228.704,79.312 228.564,79.008 228.284,78.768 C228.004,78.528 227.664,78.408 227.264,78.408 C226.768,78.408 226.328,78.544 225.944,78.816 C225.56,79.088 225.232,79.412 224.96,79.788 C224.688,80.164 224.464,80.536 224.288,80.904 C224.112,81.272 223.984,81.552 223.904,81.744 L223.856,81.744 L223.904,78.408 L223.76,78.408 L220.616,79.632 L220.616,79.776 C220.808,79.856 221,79.956 221.192,80.076 C221.384,80.196 221.552,80.296 221.696,80.376 C221.808,80.456 221.876,80.528 221.9,80.592 C221.924,80.656 221.936,80.752 221.936,80.88 L221.936,88.992 C221.936,89.248 221.804,89.432 221.54,89.544 C221.276,89.656 220.96,89.728 220.592,89.76 L220.592,90 L225.968,90 Z M234.344,90.024 C235,90.024 235.596,89.904 236.132,89.664 C236.668,89.424 237.128,89.12 237.512,88.752 C237.896,88.384 238.2,87.98 238.424,87.54 C238.648,87.1 238.792,86.704 238.856,86.352 L238.664,86.304 C238.472,86.896 238.076,87.396 237.476,87.804 C236.876,88.212 236.176,88.416 235.376,88.416 C234.64,88.416 233.992,88.28 233.432,88.008 C232.872,87.736 232.408,87.364 232.04,86.892 C231.672,86.42 231.392,85.876 231.2,85.26 C231.008,84.644 230.912,84 230.912,83.328 C230.912,83.152 230.92,82.98 230.936,82.812 C230.952,82.644 230.96,82.496 230.96,82.368 L238.664,82.368 C238.616,81.696 238.464,81.112 238.208,80.616 C237.952,80.12 237.62,79.708 237.212,79.38 C236.804,79.052 236.324,78.808 235.772,78.648 C235.22,78.488 234.632,78.408 234.008,78.408 C233.24,78.408 232.54,78.572 231.908,78.9 C231.276,79.228 230.74,79.656 230.3,80.184 C229.86,80.712 229.52,81.308 229.28,81.972 C229.04,82.636 228.92,83.304 228.92,83.976 C228.92,84.808 229.048,85.596 229.304,86.34 C229.56,87.084 229.924,87.732 230.396,88.284 C230.868,88.836 231.44,89.264 232.112,89.568 C232.784,89.872 233.528,90.024 234.344,90.024 Z M231.992,82.032 L231.008,82.032 L231.008,82.032 C231.04,81.84 231.128,81.564 231.272,81.204 C231.416,80.844 231.62,80.488 231.884,80.136 C232.148,79.784 232.46,79.476 232.82,79.212 C233.18,78.948 233.584,78.816 234.032,78.816 C234.72,78.816 235.268,79.028 235.676,79.452 C236.084,79.876 236.288,80.384 236.288,80.976 C236.288,81.2 236.26,81.368 236.204,81.48 C236.148,81.592 236.064,81.712 235.952,81.84 C235.792,81.904 235.608,81.944 235.4,81.96 C235.192,81.976 234.968,81.984 234.728,81.984 C234.36,81.984 234.024,81.988 233.72,81.996 C233.416,82.004 233.124,82.012 232.844,82.02 C232.564,82.028 232.28,82.032 231.992,82.032 Z" id="DimensionalSoftware"></path>
        </g>
    </g>
</svg>