<?xml version="1.0" encoding="UTF-8"?>
<svg width="172px" height="31px" viewBox="0 0 172 31" version="1.1" xmlns="http://www.w3.org/2000/svg" xmlns:xlink="http://www.w3.org/1999/xlink">
    <!-- Generator: Sketch 64 (93537) - https://sketch.com -->
    <title>papersnet</title>
    <desc>Created with Sketch.</desc>
    <g id="Page-1" stroke="none" stroke-width="1" fill="none" fill-rule="evenodd">
        <g id="square-logo" transform="translate(-307.000000, -262.000000)" fill="#9FA6B2" fill-rule="nonzero">
            <g id="papersnet" transform="translate(307.000000, 262.000000)">
                <path d="M15.379875,4.20521739 C17.3574509,4.20521739 18.9319647,4.81981994 20.1034634,6.04904348 C21.2749622,7.27826702 21.8607028,8.98190215 21.8607028,11.16 C21.8607028,11.8716557 21.7962176,12.6156483 21.6672453,13.392 C21.323319,15.2681833 20.6892145,16.9017322 19.7649127,18.2926957 C18.8406109,19.6836591 17.7121199,20.7457355 16.3794057,21.4789565 C15.0466914,22.2121776 13.628017,22.5787826 12.1233396,22.5787826 C10.6186623,22.5787826 9.39881718,22.2175688 8.46376769,21.4951304 C7.5287182,20.772692 6.9429776,19.8076582 6.7065283,18.6 L4.54625236,30.8921739 L0,30.8921739 L4.64298113,4.43165217 L9.18923349,4.43165217 L8.51213208,8.15165217 C9.17848918,6.94399396 10.1135246,5.98435138 11.3172665,5.27269565 C12.5210084,4.56103992 13.8751977,4.20521739 15.379875,4.20521739 Z M11.4139953,18.5676522 C12.8111957,18.5676522 14.025667,18.1093959 15.0574458,17.1928696 C16.0892245,16.2763432 16.7555716,15.0093994 17.0565071,13.392 C17.1209932,12.9391282 17.1532358,12.5293931 17.1532358,12.1627826 C17.1532358,10.8904284 16.803941,9.90922084 16.1053408,9.21913043 C15.4067406,8.52904003 14.4448363,8.184 13.2195991,8.184 C11.8438941,8.184 10.6294227,8.65303879 9.57614858,9.59113043 C8.52287445,10.5292221 7.85652734,11.7961659 7.57708726,13.392 C7.51260109,13.8017412 7.48035849,14.1899112 7.48035849,14.5565217 C7.48035849,15.8073106 7.84040088,16.7885182 8.56049646,17.5001739 C9.28059204,18.2118296 10.2317488,18.5676522 11.4139953,18.5676522 Z M33.3714269,4.20521739 C34.9405904,4.20521739 36.2141732,4.56643117 37.1922134,5.28886957 C38.1702537,6.01130796 38.7774894,6.96555929 39.0139387,8.15165217 L39.6910401,4.43165217 L44.2050495,4.43165217 L41.0452429,22.3523478 L36.5312335,22.3523478 L37.2083349,18.6 C36.5419778,19.8076582 35.6069423,20.772692 34.4032005,21.4951304 C33.1994586,22.2175688 31.8452693,22.5787826 30.340592,22.5787826 C28.3200253,22.5787826 26.7293902,21.9533976 25.5686392,20.7026087 C24.4078881,19.4518198 23.8275212,17.7158372 23.8275212,15.4946087 C23.8275212,14.653561 23.902754,13.8233084 24.0532217,13.0038261 C24.3756526,11.2139041 24.988262,9.65044147 25.8910684,8.3133913 C26.7938748,6.97634114 27.895497,5.95739481 29.1959682,5.25652174 C30.4964393,4.55564867 31.8882524,4.20521739 33.3714269,4.20521739 Z M34.3064717,8.184 C32.8877759,8.184 31.662557,8.64764754 30.6307783,9.57495652 C29.5989996,10.5022655 28.9434,11.7746006 28.6639599,13.392 C28.5779783,13.9958291 28.5349882,14.4163466 28.5349882,14.6535652 C28.5349882,15.8827888 28.8842831,16.8424313 29.5828833,17.5325217 C30.2814834,18.2226121 31.2433877,18.5676522 32.468625,18.5676522 C33.84433,18.5676522 35.0588013,18.0986134 36.1120755,17.1605217 C37.1653496,16.2224301 37.8316967,14.9662687 38.1111368,13.392 C38.1971184,12.8313015 38.2401085,12.4215665 38.2401085,12.1627826 C38.2401085,10.9335591 37.8800661,9.96313399 37.1599705,9.25147826 C36.4398749,8.53982253 35.4887182,8.184 34.3064717,8.184 Z M59.0690377,4.20521739 C61.0466137,4.20521739 62.6211274,4.81981994 63.7926262,6.04904348 C64.964125,7.27826702 65.5498656,8.98190215 65.5498656,11.16 C65.5498656,11.8716557 65.4853804,12.6156483 65.356408,13.392 C65.0124818,15.2681833 64.3783773,16.9017322 63.4540755,18.2926957 C62.5297737,19.6836591 61.4012826,20.7457355 60.0685684,21.4789565 C58.7358542,22.2121776 57.3171797,22.5787826 55.8125024,22.5787826 C54.307825,22.5787826 53.0879799,22.2175688 52.1529304,21.4951304 C51.2178809,20.772692 50.6321403,19.8076582 50.395691,18.6 L48.2354151,30.8921739 L43.6891627,30.8921739 L48.3321439,4.43165217 L52.8783962,4.43165217 L52.2012948,8.15165217 C52.8676519,6.94399396 53.8026874,5.98435138 55.0064292,5.27269565 C56.2101711,4.56103992 57.5643604,4.20521739 59.0690377,4.20521739 Z M55.103158,18.5676522 C56.5003584,18.5676522 57.7148297,18.1093959 58.7466085,17.1928696 C59.7783872,16.2763432 60.4447343,15.0093994 60.7456698,13.392 C60.810156,12.9391282 60.8423986,12.5293931 60.8423986,12.1627826 C60.8423986,10.8904284 60.4931037,9.90922084 59.7945035,9.21913043 C59.0959033,8.52904003 58.1339991,8.184 56.9087618,8.184 C55.5330568,8.184 54.3185855,8.65303879 53.2653113,9.59113043 C52.2120372,10.5292221 51.5456901,11.7961659 51.26625,13.392 C51.2017638,13.8017412 51.1695212,14.1899112 51.1695212,14.5565217 C51.1695212,15.8073106 51.5295636,16.7885182 52.2496592,17.5001739 C52.9697548,18.2118296 53.9209115,18.5676522 55.103158,18.5676522 Z M78.189092,4.20521739 C80.5105942,4.20521739 82.3323012,4.81981994 83.6542677,6.04904348 C84.9762342,7.27826702 85.6372075,8.91720715 85.6372075,10.965913 C85.6372075,11.4403502 85.5834699,12.0226052 85.4759929,12.7126957 C85.3470206,13.3596554 85.2073026,13.8772155 85.0568349,14.2653913 L71.9339646,14.2653913 C71.8909738,14.5026099 71.8694788,14.8476499 71.8694788,15.3005217 C71.8694788,16.5513106 72.1919048,17.4678232 72.8367665,18.050087 C73.4816282,18.6323507 74.3306834,18.9234783 75.3839575,18.9234783 C76.4372317,18.9234783 77.3615196,18.659307 78.1568491,18.1309565 C78.9521785,17.6026061 79.5217978,16.9071347 79.8657241,16.0445217 L84.6699198,16.0445217 C83.9605719,17.985401 82.7407268,19.5596461 81.0103479,20.7673043 C79.2799689,21.9749626 77.2648063,22.5787826 74.9647995,22.5787826 C72.6862881,22.5787826 70.8753287,21.9426151 69.5318667,20.6702609 C68.1884048,19.3979067 67.516684,17.6295765 67.516684,15.3652174 C67.516684,14.675127 67.5811692,13.9419169 67.7101415,13.1655652 C68.0325724,11.3325126 68.6935457,9.7420937 69.6930814,8.39426087 C70.692617,7.04642804 71.9285834,6.01130796 73.4010177,5.28886957 C74.8734519,4.56643117 76.4694607,4.20521739 78.189092,4.20521739 Z M80.9619835,12.2598261 C81.0479651,11.8500849 81.0909552,11.4403499 81.0909552,11.0306087 C81.0909552,9.95234243 80.7577816,9.14365487 80.0914245,8.60452174 C79.4250674,8.06538861 78.5867598,7.79582609 77.5764764,7.79582609 C76.3297438,7.79582609 75.2227478,8.17321362 74.2554552,8.928 C73.2881626,9.68278638 72.632563,10.793384 72.2886368,12.2598261 L80.9619835,12.2598261 Z M94.0848538,7.86052174 C94.9446694,6.7175595 95.9818064,5.81722068 97.196296,5.15947826 C98.4107856,4.50173584 99.7058634,4.17286957 101.081568,4.17286957 L100.211009,9.0573913 L98.8890495,9.0573913 C95.557264,9.0573913 93.6227079,10.6100714 93.0853231,13.7154783 L91.5699057,22.3523478 L86.9914104,22.3523478 L90.151217,4.43165217 L94.6974693,4.43165217 L94.0848538,7.86052174 Z M108.884356,4.20521739 C111.29184,4.20521739 113.124294,4.74973369 114.381775,5.83878261 C115.639255,6.92783153 116.321724,8.3996429 116.4292,10.2542609 L111.979677,10.2542609 C111.958181,9.37008254 111.646503,8.67461123 111.044632,8.16782609 C110.442761,7.66104094 109.593706,7.40765217 108.497441,7.40765217 C107.680616,7.40765217 107.019643,7.59095469 106.514501,7.95756522 C106.00936,8.32417575 105.756792,8.82017079 105.756792,9.44556522 C105.756792,10.0709596 106.063097,10.5453897 106.675716,10.8688696 C107.288334,11.1923494 108.239491,11.526607 109.529215,11.8716522 C110.775947,12.2382627 111.791589,12.588694 112.576171,12.9229565 C113.360753,13.2572191 114.037847,13.7478229 114.607475,14.3947826 C115.177103,15.0417424 115.461913,15.8935599 115.461913,16.9502609 C115.461913,17.360002 115.418923,17.7697371 115.332941,18.1794783 C115.074996,19.4949631 114.333417,20.5570394 113.108179,21.3657391 C111.882942,22.1744388 110.249317,22.5787826 108.207255,22.5787826 C105.864257,22.5787826 103.988812,22.0450488 102.580864,20.9775652 C101.172916,19.9100816 100.447458,18.4274877 100.404467,16.5297391 L104.853991,16.5297391 C104.789504,17.3923521 105.095809,18.0824322 105.772914,18.6 C106.450019,19.1175678 107.390428,19.3763478 108.59417,19.3763478 C109.453985,19.3763478 110.109585,19.1822628 110.560988,18.794087 C111.012391,18.4059111 111.23809,17.9099161 111.23809,17.306087 C111.23809,16.8316498 111.071503,16.4380885 110.738324,16.1253913 C110.405146,15.8126941 109.991366,15.5646966 109.496972,15.3813913 C109.002578,15.198086 108.29324,14.9770448 107.368939,14.7182609 C106.143701,14.3732157 105.154928,14.0443494 104.40259,13.7316522 C103.650251,13.418955 103.005399,12.9499162 102.468014,12.3245217 C101.930629,11.6991273 101.661941,10.8796572 101.661941,9.86608696 C101.661941,9.49947643 101.694184,9.1113064 101.75867,8.70156522 C101.995119,7.36451505 102.731325,6.28087372 103.96731,5.4506087 C105.203295,4.62034367 106.842294,4.20521739 108.884356,4.20521739 Z" id="papers"></path>
                <path d="M131.389917,4.17286957 C133.152539,4.17286957 134.528224,4.67425586 135.517012,5.67704348 C136.5058,6.6798311 137.000186,8.10851247 137.000186,9.96313043 C137.000186,10.6747862 136.946449,11.3325187 136.838972,11.9363478 L135.001125,22.3523478 L130.454873,22.3523478 L132.228233,12.453913 C132.29272,12.0657372 132.324962,11.6883497 132.324962,11.3217391 C132.324962,10.2434729 132.024031,9.4132203 131.42216,8.83095652 C130.820289,8.24869274 129.981982,7.95756522 128.907212,7.95756522 C127.617489,7.95756522 126.510493,8.37808275 125.586191,9.21913043 C124.661889,10.0601781 124.070775,11.2678182 123.81283,12.842087 L123.81283,12.7126957 L122.136198,22.3523478 L117.557703,22.3523478 L120.717509,4.43165217 L125.263762,4.43165217 L124.651146,8.02226087 C125.338999,6.81460266 126.279408,5.87113383 127.472402,5.19182609 C128.665396,4.51251834 129.971222,4.17286957 131.389917,4.17286957 Z M150.187542,4.20521739 C152.509045,4.20521739 154.330752,4.81981994 155.652718,6.04904348 C156.974685,7.27826702 157.635658,8.91720715 157.635658,10.965913 C157.635658,11.4403502 157.58192,12.0226052 157.474443,12.7126957 C157.345471,13.3596554 157.205753,13.8772155 157.055285,14.2653913 L143.932415,14.2653913 C143.889424,14.5026099 143.867929,14.8476499 143.867929,15.3005217 C143.867929,16.5513106 144.190355,17.4678232 144.835217,18.050087 C145.480079,18.6323507 146.329134,18.9234783 147.382408,18.9234783 C148.435682,18.9234783 149.35997,18.659307 150.1553,18.1309565 C150.950629,17.6026061 151.520248,16.9071347 151.864175,16.0445217 L156.66837,16.0445217 C155.959022,17.985401 154.739177,19.5596461 153.008798,20.7673043 C151.278419,21.9749626 149.263257,22.5787826 146.96325,22.5787826 C144.684739,22.5787826 142.873779,21.9426151 141.530317,20.6702609 C140.186855,19.3979067 139.515134,17.6295765 139.515134,15.3652174 C139.515134,14.675127 139.57962,13.9419169 139.708592,13.1655652 C140.031023,11.3325126 140.691996,9.7420937 141.691532,8.39426087 C142.691067,7.04642804 143.927034,6.01130796 145.399468,5.28886957 C146.871902,4.56643117 148.467911,4.20521739 150.187542,4.20521739 Z M152.960434,12.2598261 C153.046416,11.8500849 153.089406,11.4403499 153.089406,11.0306087 C153.089406,9.95234243 152.756232,9.14365487 152.089875,8.60452174 C151.423518,8.06538861 150.58521,7.79582609 149.574927,7.79582609 C148.328194,7.79582609 147.221198,8.17321362 146.253906,8.928 C145.286613,9.68278638 144.631014,10.793384 144.287087,12.2598261 L152.960434,12.2598261 Z M165.244988,16.1092174 C165.201997,16.3033053 165.180502,16.5620853 165.180502,16.8855652 C165.180502,17.467829 165.330968,17.8721728 165.631903,18.0986087 C165.932839,18.3250446 166.427225,18.4382609 167.115078,18.4382609 L168.888439,18.4382609 L168.179094,22.3523478 L165.793118,22.3523478 C164.094982,22.3523478 162.79453,22.0073078 161.891724,21.3172174 C160.988918,20.627127 160.537521,19.4949644 160.537521,17.9206957 C160.537521,17.3384319 160.602006,16.7130468 160.730979,16.0445217 L162.085182,8.28104348 L159.602476,8.28104348 L160.279578,4.43165217 L162.762283,4.43165217 L163.536113,3.32480374e-14 L168.114608,3.32480374e-14 L167.340778,4.43165217 L171.274415,4.43165217 L170.597314,8.28104348 L166.631434,8.28104348 L165.244988,16.1092174 Z" id="net"></path>
            </g>
        </g>
    </g>
</svg>