<?xml version="1.0" encoding="UTF-8"?>
<svg width="245px" height="62px" viewBox="0 0 245 62" version="1.1" xmlns="http://www.w3.org/2000/svg" xmlns:xlink="http://www.w3.org/1999/xlink">
    <!-- Generator: Sketch 64 (93537) - https://sketch.com -->
    <title>logo-gray</title>
    <desc>Created with Sketch.</desc>
    <g id="Page-1" stroke="none" stroke-width="1" fill="none" fill-rule="evenodd">
        <g id="logo-gray" fill="#9FA6B2" fill-rule="nonzero">
            <path d="M81.3614035,37.5915789 C82.0227368,37.5915789 82.5013333,37.4436491 82.797193,37.1477895 C83.0930526,36.8519298 83.2409825,36.3733333 83.2409825,35.712 L83.2409825,35.712 L83.2409825,27.0450526 L89.245193,27.0450526 C93.9789474,27.0450526 97.216,26.1052632 98.9563509,24.2256842 C100.696702,22.3461053 101.566877,19.8922105 101.566877,16.864 L101.566877,16.864 L101.566877,10.1810526 C101.566877,7.15284211 100.696702,4.69894737 98.9563509,2.81936842 C97.216,0.939789474 93.9789474,3.09148418e-14 89.245193,3.09148418e-14 L89.245193,3.09148418e-14 L73.2687719,3.09148418e-14 C72.6074386,3.09148418e-14 72.1288421,0.147929825 71.8329825,0.443789474 C71.5371228,0.739649123 71.389193,1.21824561 71.389193,1.87957895 L71.389193,1.87957895 L71.389193,35.712 C71.389193,36.3733333 71.5371228,36.8519298 71.8329825,37.1477895 C72.1288421,37.4436491 72.6074386,37.5915789 73.2687719,37.5915789 L73.2687719,37.5915789 L81.3614035,37.5915789 Z M77.7588772,32.8926316 L77.2367719,32.8926316 L77.2367719,4.69894737 L88.5142456,4.69894737 C90.1501754,4.69894737 91.4815439,4.88168421 92.5083509,5.24715789 C93.5351579,5.61263158 94.3270175,6.10863158 94.8839298,6.73515789 C95.4408421,7.36168421 95.8237193,8.11003509 96.0325614,8.98021053 C96.2414035,9.85038596 96.3458246,10.7901754 96.3458246,11.7995789 L96.3458246,11.7995789 L96.3458246,15.6631579 C96.3458246,16.6725614 96.2414035,17.6036491 96.0325614,18.4564211 C95.8237193,19.309193 95.4408421,20.0401404 94.8839298,20.6492632 C94.3270175,21.258386 93.5351579,21.7369825 92.5083509,22.0850526 C91.4815439,22.4331228 90.1501754,22.6071579 88.5142456,22.6071579 L88.5142456,22.6071579 L77.7588772,22.6071579 L77.7588772,32.8926316 Z M88.5142456,22.0850526 C90.0457544,22.0850526 91.2901053,21.9284211 92.2472982,21.6151579 C93.2044912,21.3018947 93.9441404,20.8581053 94.4662456,20.2837895 C94.9883509,19.7094737 95.3451228,19.0307368 95.5365614,18.2475789 C95.728,17.4644211 95.8237193,16.6029474 95.8237193,15.6631579 L95.8237193,15.6631579 L95.8237193,11.7995789 C95.8237193,10.8597895 95.728,9.98961404 95.5365614,9.18905263 C95.3451228,8.38849123 94.9883509,7.69235088 94.4662456,7.10063158 C93.9441404,6.50891228 93.2044912,6.0477193 92.2472982,5.71705263 C91.2901053,5.38638596 90.0457544,5.22105263 88.5142456,5.22105263 L88.5142456,5.22105263 L77.7588772,5.22105263 L77.7588772,22.0850526 L88.5142456,22.0850526 Z M87.8355088,17.6471579 L83.1365614,17.6471579 L83.1365614,9.76336842 L87.8355088,9.76336842 C88.8449123,9.76336842 89.5062456,10.0244211 89.8195088,10.5465263 C90.1327719,11.0686316 90.2894035,11.6603509 90.2894035,12.3216842 L90.2894035,12.3216842 L90.2894035,15.0888421 C90.2894035,15.7501754 90.1327719,16.3418947 89.8195088,16.864 C89.5062456,17.3861053 88.8449123,17.6471579 87.8355088,17.6471579 L87.8355088,17.6471579 Z M127.445895,37.5915789 C128.107228,37.5915789 128.585825,37.4436491 128.881684,37.1477895 C129.177544,36.8519298 129.325474,36.3733333 129.325474,35.712 L129.325474,35.712 L129.325474,29.0812632 L137.261474,18.3258947 C138.027228,17.2468772 138.549333,16.3070877 138.827789,15.5065263 C139.106246,14.7059649 139.245474,13.5051228 139.245474,11.904 L139.245474,11.904 L139.245474,1.87957895 C139.245474,1.21824561 139.097544,0.739649123 138.801684,0.443789474 C138.505825,0.147929825 138.027228,3.09148418e-14 137.365895,3.09148418e-14 L137.365895,3.09148418e-14 L129.586526,3.09148418e-14 C128.925193,3.09148418e-14 128.446596,0.147929825 128.150737,0.443789474 C127.854877,0.739649123 127.706947,1.21824561 127.706947,1.87957895 L127.706947,1.87957895 L127.706947,10.4421053 C127.706947,10.7901754 127.689544,11.1556491 127.654737,11.5385263 C127.61993,11.9214035 127.480702,12.2868772 127.237053,12.6349474 L127.237053,12.6349474 L124.835368,16.3941053 C124.661333,16.7073684 124.478596,16.933614 124.287158,17.0728421 C124.095719,17.2120702 123.860772,17.2816842 123.582316,17.2816842 L123.582316,17.2816842 L123.060211,17.2816842 C122.781754,17.2816842 122.546807,17.2120702 122.355368,17.0728421 C122.16393,16.933614 121.981193,16.7073684 121.807158,16.3941053 L121.807158,16.3941053 L119.405474,12.6349474 C119.161825,12.2868772 119.022596,11.9214035 118.987789,11.5385263 C118.952982,11.1556491 118.935579,10.7901754 118.935579,10.4421053 L118.935579,10.4421053 L118.935579,1.87957895 C118.935579,1.21824561 118.787649,0.739649123 118.491789,0.443789474 C118.19593,0.147929825 117.717333,3.09148418e-14 117.056,3.09148418e-14 L117.056,3.09148418e-14 L109.015579,3.09148418e-14 C108.354246,3.09148418e-14 107.875649,0.147929825 107.579789,0.443789474 C107.28393,0.739649123 107.136,1.21824561 107.136,1.87957895 L107.136,1.87957895 L107.136,11.904 C107.136,13.5051228 107.266526,14.7059649 107.527579,15.5065263 C107.788632,16.3070877 108.319439,17.2468772 109.12,18.3258947 L109.12,18.3258947 L117.108211,29.0290526 L117.108211,35.712 C117.108211,36.3733333 117.25614,36.8519298 117.552,37.1477895 C117.84786,37.4436491 118.326456,37.5915789 118.987789,37.5915789 L118.987789,37.5915789 L127.445895,37.5915789 Z M123.477895,32.8926316 L122.955789,32.8926316 L122.955789,23.9646316 L122.433684,23.9646316 C121.66793,23.9646316 120.980491,23.7905965 120.371368,23.4425263 C119.762246,23.0944561 119.179228,22.5375439 118.622316,21.7717895 L118.622316,21.7717895 L113.557895,14.7233684 C113.175018,14.2012632 112.948772,13.5921404 112.879158,12.896 C112.809544,12.1998596 112.774737,11.4689123 112.774737,10.7031579 L112.774737,10.7031579 L112.774737,4.69894737 L113.296842,4.69894737 L113.296842,10.7031579 C113.296842,11.4341053 113.331649,12.1215439 113.401263,12.7654737 C113.470877,13.4094035 113.679719,13.9924211 114.027789,14.5145263 L114.027789,14.5145263 L119.092211,21.5629474 C119.544702,22.2590877 120.066807,22.746386 120.658526,23.0248421 C121.250246,23.3032982 121.841965,23.4425263 122.433684,23.4425263 L122.433684,23.4425263 L123.843368,23.4425263 C124.504702,23.4425263 125.105123,23.2945965 125.644632,22.9987368 C126.18414,22.7028772 126.714947,22.2242807 127.237053,21.5629474 L127.237053,21.5629474 L132.458105,14.5145263 C132.806175,14.0620351 133.015018,13.4964211 133.084632,12.8176842 C133.154246,12.1389474 133.189053,11.4341053 133.189053,10.7031579 L133.189053,10.7031579 L133.189053,4.69894737 L133.711158,4.69894737 L133.711158,10.7031579 C133.711158,11.4689123 133.685053,12.1911579 133.632842,12.8698947 C133.580632,13.5486316 133.345684,14.1664561 132.928,14.7233684 L132.928,14.7233684 L127.706947,21.7717895 C127.150035,22.5375439 126.567018,23.0944561 125.957895,23.4425263 C125.348772,23.7905965 124.64393,23.9646316 123.843368,23.9646316 L123.843368,23.9646316 L123.477895,23.9646316 L123.477895,32.8926316 Z M164.02807,37.5915789 C167.369544,37.5915789 170.006175,36.7997193 171.937965,35.216 C173.869754,33.6322807 174.835649,31.3611228 174.835649,28.4025263 L174.835649,28.4025263 L174.835649,22.9204211 C174.835649,19.9966316 174.087298,17.9082105 172.590596,16.6551579 C171.093895,15.4021053 169.127298,14.6015439 166.690807,14.2534737 L166.690807,14.2534737 L158.911439,13.2092632 C158.458947,13.1744561 158.110877,13.0004211 157.867228,12.6871579 C157.623579,12.3738947 157.501754,11.9910175 157.501754,11.5385263 C157.501754,11.0860351 157.623579,10.7118596 157.867228,10.416 C158.110877,10.1201404 158.458947,9.97221053 158.911439,9.97221053 L158.911439,9.97221053 L171.076491,9.97221053 C171.737825,9.97221053 172.216421,9.8242807 172.512281,9.52842105 C172.80814,9.2325614 172.95607,8.75396491 172.95607,8.09263158 L172.95607,8.09263158 L172.95607,1.87957895 C172.95607,1.21824561 172.80814,0.739649123 172.512281,0.443789474 C172.216421,0.147929825 171.737825,3.09148418e-14 171.076491,3.09148418e-14 L171.076491,3.09148418e-14 L156.457544,3.09148418e-14 C153.081263,3.09148418e-14 150.43593,0.791859649 148.521544,2.37557895 C146.607158,3.95929825 145.649965,6.23045614 145.649965,9.18905263 L145.649965,9.18905263 L145.649965,14.6711579 C145.649965,17.5949474 146.389614,19.6833684 147.868912,20.9364211 C149.348211,22.1894737 151.306105,22.9900351 153.742596,23.3381053 L153.742596,23.3381053 L161.574175,24.4345263 C162.026667,24.4693333 162.366035,24.6259649 162.592281,24.9044211 C162.818526,25.1828772 162.931649,25.6179649 162.931649,26.2096842 C162.931649,26.6273684 162.818526,26.9841404 162.592281,27.28 C162.366035,27.5758596 162.026667,27.7237895 161.574175,27.7237895 L161.574175,27.7237895 L147.529544,27.7237895 C146.868211,27.7237895 146.389614,27.8717193 146.093754,28.1675789 C145.797895,28.4634386 145.649965,28.9420351 145.649965,29.6033684 L145.649965,29.6033684 L145.649965,35.712 C145.649965,36.3733333 145.797895,36.8519298 146.093754,37.1477895 C146.389614,37.4436491 146.868211,37.5915789 147.529544,37.5915789 L147.529544,37.5915789 L164.02807,37.5915789 Z M163.349333,32.8926316 L150.348912,32.8926316 L150.348912,32.3705263 L163.349333,32.3705263 C164.950456,32.3705263 166.229614,31.9267368 167.186807,31.0391579 C168.144,30.1515789 168.622596,29.0116491 168.622596,27.6193684 L168.622596,27.6193684 L168.622596,24.5911579 C168.622596,22.9552281 168.335439,21.8327018 167.761123,21.2235789 C167.186807,20.6144561 166.412351,20.2054737 165.437754,19.9966316 L165.437754,19.9966316 L154.421333,17.7515789 C153.516351,17.5775439 152.776702,17.2207719 152.202386,16.6812632 C151.62807,16.1417544 151.340912,15.1584561 151.340912,13.7313684 L151.340912,13.7313684 L151.340912,9.45010526 C151.340912,8.05782456 151.828211,6.91789474 152.802807,6.03031579 C153.777404,5.14273684 155.065263,4.69894737 156.666386,4.69894737 L156.666386,4.69894737 L168.257123,4.69894737 L168.257123,5.22105263 L156.666386,5.22105263 C155.204491,5.22105263 154.038456,5.62133333 153.168281,6.42189474 C152.298105,7.22245614 151.863018,8.23185965 151.863018,9.45010526 L151.863018,9.45010526 L151.863018,13.7313684 C151.863018,14.949614 152.106667,15.802386 152.593965,16.2896842 C153.081263,16.7769825 153.725193,17.0902456 154.525754,17.2294737 L154.525754,17.2294737 L165.542175,19.4745263 C166.586386,19.6833684 167.44786,20.1358596 168.126596,20.832 C168.805333,21.5281404 169.144702,22.781193 169.144702,24.5911579 L169.144702,24.5911579 L169.144702,27.6193684 C169.144702,29.1508772 168.622596,30.4126316 167.578386,31.4046316 C166.534175,32.3966316 165.124491,32.8926316 163.349333,32.8926316 L163.349333,32.8926316 Z" id="PYS"></path>
            <path d="M4.49010526,61.5214035 C5.36608187,61.5214035 6.16374269,61.3792749 6.88308772,61.0950175 C7.60243275,60.8107602 8.22025731,60.4017778 8.7365614,59.8680702 C9.2528655,59.3343626 9.6531462,58.6875322 9.93740351,57.9275789 C10.2216608,57.1676257 10.3637895,56.3119532 10.3637895,55.3605614 C10.3637895,54.4149708 10.2216608,53.5621988 9.93740351,52.8022456 C9.6531462,52.0422924 9.2528655,51.395462 8.7365614,50.8617544 C8.22025731,50.3280468 7.60243275,49.9190643 6.88308772,49.634807 C6.16374269,49.3505497 5.36608187,49.2084211 4.49010526,49.2084211 L4.49010526,49.2084211 L1.54574209e-14,49.2084211 L1.54574209e-14,61.5214035 L4.49010526,61.5214035 Z M4.49010526,60.7991579 L0.896280702,60.7991579 L0.896280702,49.9306667 L4.49010526,49.9306667 C5.23265497,49.9306667 5.90849123,50.0524912 6.51761404,50.2961404 C7.12673684,50.5397895 7.64739181,50.8936608 8.07957895,51.3577544 C8.51176608,51.821848 8.84678363,52.3903626 9.08463158,53.0632982 C9.32247953,53.7362339 9.44140351,54.5019883 9.44140351,55.3605614 C9.44140351,56.2249357 9.32247953,56.9935906 9.08463158,57.6665263 C8.84678363,58.339462 8.51176608,58.9079766 8.07957895,59.3720702 C7.64739181,59.8361637 7.12673684,60.1900351 6.51761404,60.4336842 C5.90849123,60.6773333 5.23265497,60.7991579 4.49010526,60.7991579 L4.49010526,60.7991579 Z M14.0117583,50.6355088 C14.1161794,50.6355088 14.2147992,50.6152047 14.307618,50.5745965 C14.4004367,50.5339883 14.481653,50.4788772 14.5512671,50.4092632 C14.6208811,50.3396491 14.6774425,50.259883 14.7209513,50.1699649 C14.7644601,50.0800468 14.7862144,49.9828772 14.7862144,49.8784561 C14.7862144,49.7740351 14.7644601,49.6739649 14.7209513,49.5782456 C14.6774425,49.4825263 14.6208811,49.3998596 14.5512671,49.3302456 C14.481653,49.2606316 14.4004367,49.2055205 14.307618,49.1649123 C14.2147992,49.1243041 14.1161794,49.104 14.0117583,49.104 C13.9073373,49.104 13.8087174,49.1243041 13.7158987,49.1649123 C13.6230799,49.2055205 13.5418636,49.2606316 13.4722495,49.3302456 C13.4026355,49.3998596 13.3475244,49.4825263 13.3069162,49.5782456 C13.266308,49.6739649 13.2460039,49.7740351 13.2460039,49.8784561 C13.2460039,49.9828772 13.266308,50.0800468 13.3069162,50.1699649 C13.3475244,50.259883 13.4026355,50.3396491 13.4722495,50.4092632 C13.5418636,50.4788772 13.6230799,50.5339883 13.7158987,50.5745965 C13.8087174,50.6152047 13.9073373,50.6355088 14.0117583,50.6355088 Z M14.4207408,61.5214035 L14.4207408,52.8631579 L13.5940741,52.8631579 L13.5940741,61.5214035 L14.4207408,61.5214035 Z M20.1484289,61.6606316 C20.629926,61.6606316 21.0592125,61.5910175 21.4362885,61.4517895 C21.8133646,61.3125614 22.1309786,61.1240234 22.3891307,60.8861754 C22.6472827,60.6483275 22.8445225,60.3669708 22.98085,60.0421053 C23.1171774,59.7172398 23.1853412,59.366269 23.1853412,58.989193 C23.1853412,58.6411228 23.1157271,58.3452632 22.9764991,58.101614 C22.837271,57.8579649 22.6545342,57.6520234 22.4282885,57.4837895 C22.2020429,57.3155556 21.9453412,57.1748772 21.6581833,57.0617544 C21.3710254,56.9486316 21.076616,56.8456608 20.7749552,56.7528421 C20.4732944,56.6600234 20.178885,56.5672047 19.8917271,56.474386 C19.6045692,56.3815673 19.3478675,56.271345 19.1216219,56.1437193 C18.8953763,56.0160936 18.7126394,55.8623626 18.5734114,55.6825263 C18.4341833,55.5026901 18.3645692,55.2764444 18.3645692,55.0037895 C18.3645692,54.783345 18.4153295,54.5730526 18.51685,54.3729123 C18.6183704,54.1727719 18.7604991,53.9972865 18.9432359,53.8464561 C19.1259728,53.6956257 19.3464172,53.5752515 19.6045692,53.4853333 C19.8627213,53.3954152 20.1484289,53.3504561 20.4616921,53.3504561 C20.8097622,53.3504561 21.1041716,53.3867135 21.3449201,53.4592281 C21.5856687,53.5317427 21.7887096,53.6129591 21.9540429,53.7028772 C22.1193763,53.7927953 22.2528032,53.8740117 22.3543236,53.9465263 C22.4558441,54.0190409 22.5385108,54.0552982 22.6023236,54.0552982 C22.6893412,54.0552982 22.753154,54.0146901 22.7937622,53.9334737 L22.7937622,53.9334737 L22.9764991,53.6463158 C22.6342301,53.3330526 22.2586043,53.1010058 21.8496219,52.9501754 C21.4406394,52.799345 20.972195,52.7239298 20.4442885,52.7239298 C20.0033997,52.7239298 19.6060195,52.7877427 19.2521482,52.9153684 C18.8982769,53.0429942 18.5980663,53.2141287 18.3515166,53.4287719 C18.1049669,53.6434152 17.9149786,53.8928655 17.7815517,54.1771228 C17.6481248,54.4613801 17.5814114,54.7572398 17.5814114,55.0647018 C17.5814114,55.4243743 17.6510254,55.7245848 17.7902535,55.9653333 C17.9294815,56.2060819 18.1122184,56.4105731 18.338464,56.578807 C18.5647096,56.7470409 18.8214114,56.886269 19.1085692,56.9964912 C19.3957271,57.1067135 19.6915868,57.2082339 19.9961482,57.3010526 C20.3007096,57.3938713 20.5965692,57.4866901 20.8837271,57.5795088 C21.170885,57.6723275 21.4275868,57.7854503 21.6538324,57.9188772 C21.880078,58.0523041 22.0628149,58.2147368 22.2020429,58.4061754 C22.341271,58.597614 22.410885,58.8383626 22.410885,59.1284211 C22.410885,59.3894737 22.3630254,59.6374737 22.2673061,59.8724211 C22.1715868,60.1073684 22.0309084,60.3118596 21.845271,60.4858947 C21.6596336,60.6599298 21.4275868,60.7977076 21.1491307,60.8992281 C20.8706745,61.0007485 20.5487096,61.0515088 20.1832359,61.0515088 C19.7945576,61.0515088 19.4682418,61.0050994 19.2042885,60.9122807 C18.9403353,60.819462 18.7198909,60.7193918 18.5429552,60.6120702 C18.3660195,60.5047485 18.2224406,60.4046784 18.1122184,60.3118596 C18.0019961,60.2190409 17.9091774,60.1726316 17.8337622,60.1726316 C17.7699494,60.1726316 17.7206394,60.1842339 17.6858324,60.2074386 C17.6510254,60.2306433 17.619119,60.2654503 17.5901131,60.3118596 L17.5901131,60.3118596 L17.3899728,60.6077193 C17.7380429,60.9209825 18.1325225,61.1747836 18.5734114,61.3691228 C19.0143002,61.563462 19.5393061,61.6606316 20.1484289,61.6606316 Z M28.4170293,61.6606316 C28.782503,61.6606316 29.134924,61.5866667 29.4742925,61.4387368 C29.8136609,61.290807 30.0935673,61.0950175 30.3140118,60.8513684 L30.3140118,60.8513684 L30.0877662,60.4858947 C30.0413568,60.427883 29.9949474,60.3988772 29.9485381,60.3988772 C29.9079299,60.3988772 29.8528188,60.4293333 29.7832048,60.4902456 C29.7135907,60.5511579 29.6236726,60.6178713 29.5134504,60.690386 C29.4032281,60.7629006 29.2727018,60.829614 29.1218714,60.8905263 C28.971041,60.9514386 28.7912048,60.9818947 28.5823626,60.9818947 C28.4141287,60.9818947 28.2574971,60.9557895 28.1124679,60.9035789 C27.9674387,60.8513684 27.8412632,60.770152 27.7339416,60.6599298 C27.62662,60.5497076 27.542503,60.4090292 27.4815907,60.2378947 C27.4206784,60.0667602 27.3902223,59.862269 27.3902223,59.6244211 L27.3902223,59.6244211 L27.3902223,53.7507368 L30.1138714,53.7507368 L30.1138714,53.1329123 L27.3902223,53.1329123 L27.3902223,49.8262456 L26.9986433,49.8262456 C26.9348305,49.8262456 26.8840702,49.8465497 26.8463626,49.8871579 C26.808655,49.9277661 26.7869007,49.9741754 26.7810995,50.026386 L26.7810995,50.026386 L26.5722574,53.1242105 L25.0929591,53.2286316 L25.0929591,53.5505965 C25.0929591,53.6144094 25.1132632,53.6637193 25.1538714,53.6985263 C25.1944796,53.7333333 25.2466901,53.7507368 25.310503,53.7507368 L25.310503,53.7507368 L26.5548539,53.7507368 L26.5548539,59.6679298 C26.5548539,60.3466667 26.7187369,60.8484678 27.046503,61.1733333 C27.3742691,61.4981988 27.8311112,61.6606316 28.4170293,61.6606316 Z M33.6226122,61.5214035 L33.6226122,55.8913684 C33.8836648,55.125614 34.2244835,54.5396959 34.6450683,54.133614 C35.0656531,53.7275322 35.6037116,53.5244912 36.2592438,53.5244912 C36.43908,53.5244912 36.5986122,53.5360936 36.7378403,53.5592982 C36.8770683,53.5825029 36.994542,53.6086082 37.0902613,53.637614 C37.1859806,53.6666199 37.2657467,53.6927251 37.3295596,53.7159298 C37.3933724,53.7391345 37.4426824,53.7507368 37.4774894,53.7507368 C37.5761093,53.7507368 37.634121,53.7043275 37.6515245,53.6115088 L37.6515245,53.6115088 L37.7646473,53.037193 C37.5674075,52.9327719 37.3585654,52.8530058 37.138121,52.7978947 C36.9176765,52.7427836 36.676928,52.7152281 36.4158753,52.7152281 C35.7371385,52.7152281 35.1657233,52.9139181 34.7016297,53.3112982 C34.2375362,53.7086784 33.8662613,54.2583392 33.5878052,54.9602807 L33.5878052,54.9602807 L33.5181911,53.1329123 C33.51239,53.0342924 33.487735,52.9646784 33.4442262,52.9240702 C33.4007174,52.883462 33.3296531,52.8631579 33.2310332,52.8631579 L33.2310332,52.8631579 L32.7959455,52.8631579 L32.7959455,61.5214035 L33.6226122,61.5214035 Z M40.9079144,50.6355088 C41.0123354,50.6355088 41.1109553,50.6152047 41.203774,50.5745965 C41.2965927,50.5339883 41.3778091,50.4788772 41.4474231,50.4092632 C41.5170372,50.3396491 41.5735986,50.259883 41.6171073,50.1699649 C41.6606161,50.0800468 41.6823705,49.9828772 41.6823705,49.8784561 C41.6823705,49.7740351 41.6606161,49.6739649 41.6171073,49.5782456 C41.5735986,49.4825263 41.5170372,49.3998596 41.4474231,49.3302456 C41.3778091,49.2606316 41.2965927,49.2055205 41.203774,49.1649123 C41.1109553,49.1243041 41.0123354,49.104 40.9079144,49.104 C40.8034933,49.104 40.7048734,49.1243041 40.6120547,49.1649123 C40.519236,49.2055205 40.4380196,49.2606316 40.3684056,49.3302456 C40.2987915,49.3998596 40.2436804,49.4825263 40.2030722,49.5782456 C40.1624641,49.6739649 40.14216,49.7740351 40.14216,49.8784561 C40.14216,49.9828772 40.1624641,50.0800468 40.2030722,50.1699649 C40.2436804,50.259883 40.2987915,50.3396491 40.3684056,50.4092632 C40.4380196,50.4788772 40.519236,50.5339883 40.6120547,50.5745965 C40.7048734,50.6152047 40.8034933,50.6355088 40.9079144,50.6355088 Z M41.3168968,61.5214035 L41.3168968,52.8631579 L40.4902301,52.8631579 L40.4902301,61.5214035 L41.3168968,61.5214035 Z M48.4803744,61.6345263 C49.0894972,61.6345263 49.6275557,61.5185029 50.0945499,61.2864561 C50.561544,61.0544094 50.9560235,60.7367953 51.2779884,60.333614 C51.5999534,59.9304327 51.8436025,59.4547368 52.0089358,58.9065263 C52.1742692,58.3583158 52.2569358,57.7680468 52.2569358,57.1357193 C52.2569358,55.6622222 51.9596259,54.5585497 51.365006,53.8247018 C50.7703861,53.0908538 49.9422692,52.7239298 48.8806551,52.7239298 C48.2483276,52.7239298 47.679813,52.8718596 47.1751113,53.1677193 C46.6704095,53.4635789 46.22662,53.8667602 45.8437428,54.3772632 L45.8437428,54.3772632 L45.8437428,48.8603509 L45.0083744,48.8603509 L45.0083744,61.5214035 L45.5130762,61.5214035 C45.6523042,61.5214035 45.73062,61.4488889 45.7480235,61.3038596 L45.7480235,61.3038596 L45.8002341,60.2422456 C46.1134972,60.700538 46.4876727,61.0471579 46.9227604,61.2821053 C47.3578481,61.5170526 47.8770528,61.6345263 48.4803744,61.6345263 Z M48.3237428,60.9818947 C47.8016376,60.9818947 47.3404446,60.8818246 46.9401639,60.6816842 C46.5398832,60.4815439 46.1744095,60.1320234 45.8437428,59.6331228 L45.8437428,59.6331228 L45.8437428,55.0647018 C46.2092165,54.5367953 46.6240001,54.1249123 47.0880937,53.8290526 C47.5521873,53.533193 48.071392,53.3852632 48.6457077,53.3852632 C49.5332867,53.3852632 50.2149241,53.6883743 50.69062,54.2945965 C51.1663159,54.9008187 51.4041639,55.8478596 51.4041639,57.1357193 C51.4041639,57.7042339 51.3389007,58.2248889 51.2083744,58.6976842 C51.0778481,59.1704795 50.8835089,59.5765614 50.6253569,59.9159298 C50.3672048,60.2552982 50.0466902,60.5178012 49.663813,60.7034386 C49.2809358,60.889076 48.8342458,60.9818947 48.3237428,60.9818947 Z M57.627852,61.6606316 C58.2717818,61.6606316 58.8562497,61.5098012 59.3812555,61.2081404 C59.9062614,60.9064795 60.3689047,60.5061988 60.7691854,60.0072982 L60.7691854,60.0072982 L60.8475011,61.2951579 C60.8533023,61.4459883 60.9374193,61.5214035 61.099852,61.5214035 L61.099852,61.5214035 L61.561045,61.5214035 L61.561045,52.8631579 L60.7256766,52.8631579 L60.7256766,59.3720702 C60.3369982,59.8825731 59.8990099,60.2814035 59.4117117,60.5685614 C58.9244134,60.8557193 58.3994076,60.9992982 57.8366941,60.9992982 C57.0767409,60.9992982 56.5111269,60.7687018 56.139852,60.3075088 C55.7685772,59.8463158 55.5829397,59.2096374 55.5829397,58.3974737 L55.5829397,58.3974737 L55.5829397,52.8631579 L54.7475713,52.8631579 L54.7475713,58.3974737 C54.7475713,58.9021754 54.8084836,59.3546667 54.9303082,59.7549474 C55.0521327,60.1552281 55.231969,60.4974971 55.4698169,60.7817544 C55.7076649,61.0660117 56.0064251,61.2835556 56.3660976,61.434386 C56.7257701,61.5852164 57.1463549,61.6606316 57.627852,61.6606316 Z M65.5831893,50.6355088 C65.6876103,50.6355088 65.7862302,50.6152047 65.8790489,50.5745965 C65.9718676,50.5339883 66.053084,50.4788772 66.122698,50.4092632 C66.1923121,50.3396491 66.2488735,50.259883 66.2923823,50.1699649 C66.335891,50.0800468 66.3576454,49.9828772 66.3576454,49.8784561 C66.3576454,49.7740351 66.335891,49.6739649 66.2923823,49.5782456 C66.2488735,49.4825263 66.1923121,49.3998596 66.122698,49.3302456 C66.053084,49.2606316 65.9718676,49.2055205 65.8790489,49.1649123 C65.7862302,49.1243041 65.6876103,49.104 65.5831893,49.104 C65.4787682,49.104 65.3801483,49.1243041 65.2873296,49.1649123 C65.1945109,49.2055205 65.1132945,49.2606316 65.0436805,49.3302456 C64.9740665,49.3998596 64.9189554,49.4825263 64.8783472,49.5782456 C64.837739,49.6739649 64.8174349,49.7740351 64.8174349,49.8784561 C64.8174349,49.9828772 64.837739,50.0800468 64.8783472,50.1699649 C64.9189554,50.259883 64.9740665,50.3396491 65.0436805,50.4092632 C65.1132945,50.4788772 65.1945109,50.5339883 65.2873296,50.5745965 C65.3801483,50.6152047 65.4787682,50.6355088 65.5831893,50.6355088 Z M65.9921717,61.5214035 L65.9921717,52.8631579 L65.1655051,52.8631579 L65.1655051,61.5214035 L65.9921717,61.5214035 Z M72.3202809,61.6345263 C72.9584096,61.6345263 73.5341757,61.4807953 74.0475792,61.1733333 C74.5609827,60.8658713 75.009123,60.4510877 75.3920002,59.9289825 L75.3920002,59.9289825 L75.4790178,61.2951579 C75.5022224,61.4459883 75.5863394,61.5214035 75.7313686,61.5214035 L75.7313686,61.5214035 L76.1925616,61.5214035 L76.1925616,48.8603509 L75.3571932,48.8603509 L75.3571932,53.994386 C75.04393,53.5767018 74.6726552,53.2590877 74.2433686,53.0415439 C73.8140821,52.824 73.3064797,52.7152281 72.7205616,52.7152281 C72.1114388,52.7152281 71.5733803,52.8312515 71.1063862,53.0632982 C70.639392,53.295345 70.2449125,53.6129591 69.9229476,54.0161404 C69.6009827,54.4193216 69.3573336,54.8950175 69.1920002,55.4432281 C69.0266669,55.9914386 68.9440002,56.5817076 68.9440002,57.2140351 C68.9440002,58.6875322 69.2413102,59.792655 69.83593,60.5294035 C70.4305499,61.266152 71.2586669,61.6345263 72.3202809,61.6345263 Z M72.5552283,60.9644912 C71.6676493,60.9644912 70.9860119,60.6613801 70.510316,60.0551579 C70.0346201,59.4489357 69.7967721,58.5018947 69.7967721,57.2140351 C69.7967721,56.6455205 69.8620353,56.1248655 69.9925616,55.6520702 C70.1230879,55.1792749 70.3174271,54.773193 70.5755792,54.4338246 C70.8337312,54.0944561 71.1542458,53.8319532 71.537123,53.6463158 C71.9200002,53.4606784 72.3666903,53.3678596 72.8771932,53.3678596 C73.3876961,53.3678596 73.8445382,53.4693801 74.2477195,53.6724211 C74.6509008,53.875462 75.0207254,54.2235322 75.3571932,54.7166316 L75.3571932,54.7166316 L75.3571932,59.2850526 C74.9917195,59.8129591 74.5769359,60.2248421 74.1128423,60.5207018 C73.6487488,60.8165614 73.1295441,60.9644912 72.5552283,60.9644912 Z M82.938355,61.6345263 C83.5590802,61.6345263 84.1145422,61.5301053 84.604741,61.3212632 C85.0949398,61.1124211 85.5082731,60.8136608 85.844741,60.4249825 C86.1812088,60.0363041 86.4379106,59.5693099 86.6148462,59.024 C86.7917819,58.4786901 86.8802498,57.8666667 86.8802498,57.1879298 C86.8802498,56.509193 86.7917819,55.8957193 86.6148462,55.3475088 C86.4379106,54.7992982 86.1812088,54.3308538 85.844741,53.9421754 C85.5082731,53.5534971 85.0949398,53.2532865 84.604741,53.0415439 C84.1145422,52.8298012 83.5590802,52.7239298 82.938355,52.7239298 C82.3176299,52.7239298 81.7621679,52.8298012 81.2719691,53.0415439 C80.7817702,53.2532865 80.3669866,53.5534971 80.0276182,53.9421754 C79.6882498,54.3308538 79.4300977,54.7992982 79.253162,55.3475088 C79.0762264,55.8957193 78.9877585,56.509193 78.9877585,57.1879298 C78.9877585,57.8666667 79.0762264,58.4786901 79.253162,59.024 C79.4300977,59.5693099 79.6882498,60.0363041 80.0276182,60.4249825 C80.3669866,60.8136608 80.7817702,61.1124211 81.2719691,61.3212632 C81.7621679,61.5301053 82.3176299,61.6345263 82.938355,61.6345263 Z M82.938355,60.9818947 C82.4220509,60.9818947 81.97101,60.8934269 81.5852322,60.7164912 C81.1994544,60.5395556 80.8774895,60.2857544 80.6193375,59.9550877 C80.3611854,59.6244211 80.1668462,59.2255906 80.0363199,58.7585965 C79.9057936,58.2916023 79.8405305,57.7680468 79.8405305,57.1879298 C79.8405305,56.613614 79.9057936,56.0915088 80.0363199,55.621614 C80.1668462,55.1517193 80.3611854,54.7499883 80.6193375,54.4164211 C80.8774895,54.0828538 81.1994544,53.826152 81.5852322,53.6463158 C81.97101,53.4664795 82.4220509,53.3765614 82.938355,53.3765614 C83.4546591,53.3765614 83.9057,53.4664795 84.2914778,53.6463158 C84.6772556,53.826152 84.9992205,54.0828538 85.2573726,54.4164211 C85.5155246,54.7499883 85.7084135,55.1517193 85.8360392,55.621614 C85.963665,56.0915088 86.0274778,56.613614 86.0274778,57.1879298 C86.0274778,57.7680468 85.963665,58.2916023 85.8360392,58.7585965 C85.7084135,59.2255906 85.5155246,59.6244211 85.2573726,59.9550877 C84.9992205,60.2857544 84.6772556,60.5395556 84.2914778,60.7164912 C83.9057,60.8934269 83.4546591,60.9818947 82.938355,60.9818947 Z M90.4237975,61.5214035 L90.4237975,55.8913684 C90.6848502,55.125614 91.0256689,54.5396959 91.4462537,54.133614 C91.8668385,53.7275322 92.404897,53.5244912 93.0604291,53.5244912 C93.2402654,53.5244912 93.3997975,53.5360936 93.5390256,53.5592982 C93.6782537,53.5825029 93.7957274,53.6086082 93.8914467,53.637614 C93.987166,53.6666199 94.066932,53.6927251 94.1307449,53.7159298 C94.1945578,53.7391345 94.2438677,53.7507368 94.2786747,53.7507368 C94.3772946,53.7507368 94.4353063,53.7043275 94.4527098,53.6115088 L94.4527098,53.6115088 L94.5658326,53.037193 C94.3685929,52.9327719 94.1597508,52.8530058 93.9393063,52.7978947 C93.7188619,52.7427836 93.4781133,52.7152281 93.2170607,52.7152281 C92.5383239,52.7152281 91.9669086,52.9139181 91.5028151,53.3112982 C91.0387215,53.7086784 90.6674467,54.2583392 90.3889905,54.9602807 L90.3889905,54.9602807 L90.3193765,53.1329123 C90.3135753,53.0342924 90.2889203,52.9646784 90.2454116,52.9240702 C90.2019028,52.883462 90.1308385,52.8631579 90.0322186,52.8631579 L90.0322186,52.8631579 L89.5971309,52.8631579 L89.5971309,61.5214035 L90.4237975,61.5214035 Z M98.4487488,61.6606316 C98.8026202,61.6606316 99.1274857,61.6272749 99.4233453,61.5605614 C99.719205,61.493848 99.9947605,61.3966784 100.250012,61.2690526 C100.505263,61.1414269 100.750363,60.9847953 100.98531,60.7991579 C101.220258,60.6135205 101.456655,60.4046784 101.694503,60.1726316 L101.694503,60.1726316 L101.816328,61.2777544 C101.856936,61.4401871 101.964258,61.5214035 102.138293,61.5214035 L102.138293,61.5214035 L102.468959,61.5214035 L102.468959,55.8826667 C102.468959,55.4011696 102.410948,54.9646316 102.294924,54.5730526 C102.178901,54.1814737 102.006316,53.8479064 101.77717,53.5723509 C101.548024,53.2967953 101.259415,53.0850526 100.911345,52.9371228 C100.563275,52.789193 100.157193,52.7152281 99.6930997,52.7152281 C99.0607722,52.7152281 98.4951582,52.8312515 97.9962576,53.0632982 C97.497357,53.295345 97.0216611,53.637614 96.5691699,54.0901053 L96.5691699,54.0901053 L96.7170997,54.3424561 C96.7751114,54.4468772 96.8621289,54.4990877 96.9781523,54.4990877 C97.0651699,54.4990877 97.1724915,54.441076 97.3001172,54.3250526 C97.427743,54.2090292 97.5930763,54.0814035 97.7961172,53.9421754 C97.9991582,53.8029474 98.2471582,53.6753216 98.5401172,53.5592982 C98.8330763,53.4432749 99.188398,53.3852632 99.6060822,53.3852632 C100.284819,53.3852632 100.796772,53.6013567 101.141942,54.0335439 C101.487111,54.465731 101.659696,55.0821053 101.659696,55.8826667 L101.659696,55.8826667 L101.659696,56.7876491 C100.679299,56.8108538 99.8395792,56.8920702 99.1405383,57.0312982 C98.4414974,57.1705263 97.8700822,57.3561637 97.4262927,57.5882105 C96.9825032,57.8202573 96.6561874,58.0929123 96.4473453,58.4061754 C96.2385032,58.7194386 96.1340822,59.058807 96.1340822,59.4242807 C96.1340822,59.8187602 96.1993453,60.1566784 96.3298716,60.4380351 C96.460398,60.7193918 96.6329827,60.9499883 96.847626,61.1298246 C97.0622693,61.3096608 97.308819,61.4430877 97.5872751,61.5301053 C97.8657313,61.6171228 98.1528892,61.6606316 98.4487488,61.6606316 Z M98.6575909,61.0602105 C98.4313453,61.0602105 98.2138015,61.0283041 98.0049594,60.9644912 C97.7961172,60.9006784 97.6133804,60.8006082 97.4567488,60.6642807 C97.3001172,60.5279532 97.1739418,60.3539181 97.0782225,60.1421754 C96.9825032,59.9304327 96.9346436,59.6795322 96.9346436,59.3894737 C96.9346436,59.0820117 97.026012,58.8079064 97.2087488,58.5671579 C97.3914857,58.3264094 97.675743,58.1190175 98.0615208,57.9449825 C98.4472985,57.7709474 98.9374974,57.6331696 99.5321172,57.5316491 C100.126737,57.4301287 100.83593,57.3677661 101.659696,57.3445614 L101.659696,57.3445614 L101.659696,59.5983158 C101.456655,59.8071579 101.250714,60.0014971 101.041872,60.1813333 C100.83303,60.3611696 100.608234,60.5163509 100.367486,60.6468772 C100.126737,60.7774035 99.8656845,60.878924 99.5843278,60.9514386 C99.3029711,61.0239532 98.9940588,61.0602105 98.6575909,61.0602105 Z M113.654581,61.5214035 L113.654581,49.9654737 L117.979353,49.9654737 L117.979353,49.2084211 L108.416125,49.2084211 L108.416125,49.9654737 L112.767002,49.9654737 L112.767002,61.5214035 L113.654581,61.5214035 Z M121.383673,51.4186667 C121.453287,51.4186667 121.512749,51.4085146 121.562059,51.3882105 C121.611369,51.3679064 121.659228,51.3287485 121.705638,51.2707368 L121.705638,51.2707368 L123.585217,49.069193 L122.767252,49.069193 C122.628024,49.069193 122.523603,49.0894971 122.453989,49.1301053 C122.384375,49.1707135 122.317661,49.2432281 122.253848,49.3476491 L122.253848,49.3476491 L120.887673,51.4186667 L121.383673,51.4186667 Z M121.679533,61.6345263 C122.004398,61.6345263 122.327813,61.6026199 122.649778,61.538807 C122.971743,61.4749942 123.273404,61.3894269 123.554761,61.2821053 C123.836117,61.1747836 124.091369,61.0457076 124.320515,60.8948772 C124.549661,60.7440468 124.733848,60.581614 124.873076,60.4075789 L124.873076,60.4075789 L124.646831,60.1291228 C124.606223,60.0711111 124.548211,60.0421053 124.472796,60.0421053 C124.414784,60.0421053 124.321965,60.0899649 124.19434,60.1856842 C124.066714,60.2814035 123.894129,60.3887251 123.676585,60.5076491 C123.459041,60.6265731 123.190737,60.7338947 122.871673,60.829614 C122.552609,60.9253333 122.175533,60.973193 121.740445,60.973193 C121.253147,60.973193 120.812258,60.889076 120.417778,60.7208421 C120.023299,60.5526082 119.686831,60.3017076 119.408375,59.9681404 C119.129918,59.6345731 118.915275,59.2212398 118.764445,58.7281404 C118.613614,58.2350409 118.538199,57.6636257 118.538199,57.0138947 L118.538199,57.0138947 L118.538199,56.8485614 L124.794761,56.8485614 C124.875977,56.8485614 124.935439,56.8253567 124.973147,56.7789474 C125.010854,56.732538 125.029708,56.6455205 125.029708,56.5178947 C125.029708,55.9087719 124.944141,55.3692632 124.773006,54.8993684 C124.601872,54.4294737 124.364024,54.0335439 124.059462,53.7115789 C123.754901,53.389614 123.395228,53.1445146 122.980445,52.9762807 C122.565661,52.8080468 122.11462,52.7239298 121.627322,52.7239298 C121.012398,52.7239298 120.462737,52.8312515 119.97834,53.0458947 C119.493942,53.260538 119.084959,53.557848 118.751392,53.9378246 C118.417825,54.3178012 118.162573,54.7702924 117.985638,55.2952982 C117.808702,55.8203041 117.720234,56.3931696 117.720234,57.0138947 C117.720234,57.7506433 117.814503,58.4047251 118.003041,58.9761404 C118.191579,59.5475556 118.459883,60.0305029 118.807954,60.4249825 C119.156024,60.819462 119.573708,61.1196725 120.061006,61.325614 C120.548304,61.5315556 121.087813,61.6345263 121.679533,61.6345263 Z M124.281357,56.3177544 L118.573006,56.3177544 C118.625217,55.8652632 118.731088,55.4562807 118.89062,55.090807 C119.050152,54.7253333 119.258995,54.4120702 119.517147,54.1510175 C119.775299,53.8899649 120.08131,53.6898246 120.435182,53.5505965 C120.789053,53.4113684 121.189334,53.3417544 121.636024,53.3417544 C122.030503,53.3417544 122.390176,53.4099181 122.715041,53.5462456 C123.039907,53.6825731 123.318363,53.8783626 123.55041,54.133614 C123.782457,54.3888655 123.962293,54.7006784 124.089918,55.0690526 C124.217544,55.4374269 124.281357,55.8536608 124.281357,56.3177544 L124.281357,56.3177544 Z M130.879221,61.6345263 C131.204086,61.6345263 131.515899,61.6040702 131.814659,61.5431579 C132.113419,61.4822456 132.390425,61.3966784 132.645677,61.2864561 C132.900928,61.1762339 133.130074,61.0457076 133.333115,60.8948772 C133.536156,60.7440468 133.70439,60.581614 133.837817,60.4075789 L133.837817,60.4075789 L133.611572,60.1291228 C133.570963,60.0711111 133.512952,60.0421053 133.437536,60.0421053 C133.373724,60.0421053 133.288156,60.0914152 133.180835,60.1900351 C133.073513,60.288655 132.928484,60.3959766 132.745747,60.512 C132.56301,60.6280234 132.330963,60.735345 132.049607,60.8339649 C131.76825,60.9325848 131.418729,60.9818947 131.001045,60.9818947 C130.548554,60.9818947 130.136671,60.8977778 129.765396,60.7295439 C129.394121,60.5613099 129.077958,60.3162105 128.816905,59.9942456 C128.555852,59.6722807 128.354262,59.2763509 128.212133,58.8064561 C128.070004,58.3365614 127.99894,57.7970526 127.99894,57.1879298 C127.99894,56.6020117 128.068554,56.0741053 128.207782,55.6042105 C128.34701,55.1343158 128.548601,54.7340351 128.812554,54.4033684 C129.076507,54.0727018 129.401373,53.8189006 129.78715,53.6419649 C130.172928,53.4650292 130.615267,53.3765614 131.114168,53.3765614 C131.473841,53.3765614 131.779852,53.4157193 132.032203,53.4940351 C132.284554,53.5723509 132.494846,53.6579181 132.66308,53.7507368 C132.831314,53.8435556 132.966191,53.9291228 133.067712,54.0074386 C133.169232,54.0857544 133.248998,54.1249123 133.30701,54.1249123 C133.353419,54.1249123 133.389677,54.1147602 133.415782,54.0944561 C133.441887,54.074152 133.469443,54.0494971 133.498449,54.0204912 L133.498449,54.0204912 L133.715993,53.7246316 C133.391127,53.4171696 133.0097,53.1735205 132.571712,52.9936842 C132.133724,52.813848 131.633373,52.7239298 131.070659,52.7239298 C130.444133,52.7239298 129.888671,52.8327018 129.404273,53.0502456 C128.919876,53.2677895 128.510893,53.5738012 128.177326,53.9682807 C127.843759,54.3627602 127.589958,54.832655 127.415922,55.3779649 C127.241887,55.9232749 127.15487,56.5265965 127.15487,57.1879298 C127.15487,57.8898713 127.246238,58.5163977 127.428975,59.0675088 C127.611712,59.6186199 127.866963,60.0841637 128.194729,60.4641404 C128.522496,60.844117 128.914074,61.1341754 129.369466,61.3343158 C129.824858,61.5344561 130.32811,61.6345263 130.879221,61.6345263 Z M137.085505,61.5214035 L137.085505,55.0298947 C137.468382,54.5193918 137.90347,54.1176608 138.390768,53.8247018 C138.878067,53.5317427 139.405973,53.3852632 139.974488,53.3852632 C140.740242,53.3852632 141.308757,53.6158596 141.680032,54.0770526 C142.051306,54.5382456 142.236944,55.174924 142.236944,55.9870877 L142.236944,55.9870877 L142.236944,61.5214035 L143.063611,61.5214035 L143.063611,55.9870877 C143.063611,55.482386 143.002698,55.0298947 142.880874,54.629614 C142.759049,54.2293333 142.579213,53.8870643 142.341365,53.602807 C142.103517,53.3185497 141.803306,53.1010058 141.440733,52.9501754 C141.07816,52.799345 140.659026,52.7239298 140.18333,52.7239298 C139.5394,52.7239298 138.954932,52.8762105 138.429926,53.1807719 C137.90492,53.4853333 137.445178,53.8870643 137.050698,54.3859649 L137.050698,54.3859649 L136.972382,53.0807018 C136.949178,52.9356725 136.86216,52.8631579 136.71133,52.8631579 L136.71133,52.8631579 L136.258839,52.8631579 L136.258839,61.5214035 L137.085505,61.5214035 Z M146.876913,50.6355088 C146.981334,50.6355088 147.079954,50.6152047 147.172772,50.5745965 C147.265591,50.5339883 147.346807,50.4788772 147.416421,50.4092632 C147.486036,50.3396491 147.542597,50.259883 147.586106,50.1699649 C147.629614,50.0800468 147.651369,49.9828772 147.651369,49.8784561 C147.651369,49.7740351 147.629614,49.6739649 147.586106,49.5782456 C147.542597,49.4825263 147.486036,49.3998596 147.416421,49.3302456 C147.346807,49.2606316 147.265591,49.2055205 147.172772,49.1649123 C147.079954,49.1243041 146.981334,49.104 146.876913,49.104 C146.772492,49.104 146.673872,49.1243041 146.581053,49.1649123 C146.488234,49.2055205 146.407018,49.2606316 146.337404,49.3302456 C146.26779,49.3998596 146.212679,49.4825263 146.172071,49.5782456 C146.131462,49.6739649 146.111158,49.7740351 146.111158,49.8784561 C146.111158,49.9828772 146.131462,50.0800468 146.172071,50.1699649 C146.212679,50.259883 146.26779,50.3396491 146.337404,50.4092632 C146.407018,50.4788772 146.488234,50.5339883 146.581053,50.5745965 C146.673872,50.6152047 146.772492,50.6355088 146.876913,50.6355088 Z M147.285895,61.5214035 L147.285895,52.8631579 L146.459229,52.8631579 L146.459229,61.5214035 L147.285895,61.5214035 Z M153.970776,61.6345263 C154.295642,61.6345263 154.607455,61.6040702 154.906215,61.5431579 C155.204975,61.4822456 155.481981,61.3966784 155.737232,61.2864561 C155.992484,61.1762339 156.22163,61.0457076 156.424671,60.8948772 C156.627712,60.7440468 156.795946,60.581614 156.929373,60.4075789 L156.929373,60.4075789 L156.703127,60.1291228 C156.662519,60.0711111 156.604507,60.0421053 156.529092,60.0421053 C156.465279,60.0421053 156.379712,60.0914152 156.27239,60.1900351 C156.165069,60.288655 156.020039,60.3959766 155.837303,60.512 C155.654566,60.6280234 155.422519,60.735345 155.141162,60.8339649 C154.859806,60.9325848 154.510285,60.9818947 154.092601,60.9818947 C153.64011,60.9818947 153.228227,60.8977778 152.856952,60.7295439 C152.485677,60.5613099 152.169513,60.3162105 151.90846,59.9942456 C151.647408,59.6722807 151.445817,59.2763509 151.303689,58.8064561 C151.16156,58.3365614 151.090496,57.7970526 151.090496,57.1879298 C151.090496,56.6020117 151.16011,56.0741053 151.299338,55.6042105 C151.438566,55.1343158 151.640156,54.7340351 151.90411,54.4033684 C152.168063,54.0727018 152.492928,53.8189006 152.878706,53.6419649 C153.264484,53.4650292 153.706823,53.3765614 154.205724,53.3765614 C154.565396,53.3765614 154.871408,53.4157193 155.123759,53.4940351 C155.37611,53.5723509 155.586402,53.6579181 155.754636,53.7507368 C155.92287,53.8435556 156.057747,53.9291228 156.159268,54.0074386 C156.260788,54.0857544 156.340554,54.1249123 156.398566,54.1249123 C156.444975,54.1249123 156.481232,54.1147602 156.507338,54.0944561 C156.533443,54.074152 156.560999,54.0494971 156.590004,54.0204912 L156.590004,54.0204912 L156.807548,53.7246316 C156.482683,53.4171696 156.101256,53.1735205 155.663268,52.9936842 C155.225279,52.813848 154.724928,52.7239298 154.162215,52.7239298 C153.535689,52.7239298 152.980227,52.8327018 152.495829,53.0502456 C152.011431,53.2677895 151.602449,53.5738012 151.268882,53.9682807 C150.935314,54.3627602 150.681513,54.832655 150.507478,55.3779649 C150.333443,55.9232749 150.246425,56.5265965 150.246425,57.1879298 C150.246425,57.8898713 150.337794,58.5163977 150.520531,59.0675088 C150.703268,59.6186199 150.958519,60.0841637 151.286285,60.4641404 C151.614051,60.844117 152.00563,61.1341754 152.461022,61.3343158 C152.916414,61.5344561 153.419665,61.6345263 153.970776,61.6345263 Z M161.186464,61.6606316 C161.540336,61.6606316 161.865201,61.6272749 162.161061,61.5605614 C162.456921,61.493848 162.732476,61.3966784 162.987728,61.2690526 C163.242979,61.1414269 163.488078,60.9847953 163.723026,60.7991579 C163.957973,60.6135205 164.194371,60.4046784 164.432219,60.1726316 L164.432219,60.1726316 L164.554043,61.2777544 C164.594652,61.4401871 164.701973,61.5214035 164.876008,61.5214035 L164.876008,61.5214035 L165.206675,61.5214035 L165.206675,55.8826667 C165.206675,55.4011696 165.148663,54.9646316 165.03264,54.5730526 C164.916616,54.1814737 164.744032,53.8479064 164.514885,53.5723509 C164.285739,53.2967953 163.997131,53.0850526 163.649061,52.9371228 C163.300991,52.789193 162.894909,52.7152281 162.430815,52.7152281 C161.798488,52.7152281 161.232874,52.8312515 160.733973,53.0632982 C160.235073,53.295345 159.759377,53.637614 159.306885,54.0901053 L159.306885,54.0901053 L159.454815,54.3424561 C159.512827,54.4468772 159.599845,54.4990877 159.715868,54.4990877 C159.802885,54.4990877 159.910207,54.441076 160.037833,54.3250526 C160.165459,54.2090292 160.330792,54.0814035 160.533833,53.9421754 C160.736874,53.8029474 160.984874,53.6753216 161.277833,53.5592982 C161.570792,53.4432749 161.926114,53.3852632 162.343798,53.3852632 C163.022535,53.3852632 163.534488,53.6013567 163.879657,54.0335439 C164.224827,54.465731 164.397412,55.0821053 164.397412,55.8826667 L164.397412,55.8826667 L164.397412,56.7876491 C163.417014,56.8108538 162.577295,56.8920702 161.878254,57.0312982 C161.179213,57.1705263 160.607798,57.3561637 160.164008,57.5882105 C159.720219,57.8202573 159.393903,58.0929123 159.185061,58.4061754 C158.976219,58.7194386 158.871798,59.058807 158.871798,59.4242807 C158.871798,59.8187602 158.937061,60.1566784 159.067587,60.4380351 C159.198114,60.7193918 159.370698,60.9499883 159.585342,61.1298246 C159.799985,61.3096608 160.046535,61.4430877 160.324991,61.5301053 C160.603447,61.6171228 160.890605,61.6606316 161.186464,61.6606316 Z M161.395307,61.0602105 C161.169061,61.0602105 160.951517,61.0283041 160.742675,60.9644912 C160.533833,60.9006784 160.351096,60.8006082 160.194464,60.6642807 C160.037833,60.5279532 159.911657,60.3539181 159.815938,60.1421754 C159.720219,59.9304327 159.672359,59.6795322 159.672359,59.3894737 C159.672359,59.0820117 159.763728,58.8079064 159.946464,58.5671579 C160.129201,58.3264094 160.413459,58.1190175 160.799236,57.9449825 C161.185014,57.7709474 161.675213,57.6331696 162.269833,57.5316491 C162.864453,57.4301287 163.573646,57.3677661 164.397412,57.3445614 L164.397412,57.3445614 L164.397412,59.5983158 C164.194371,59.8071579 163.988429,60.0014971 163.779587,60.1813333 C163.570745,60.3611696 163.34595,60.5163509 163.105201,60.6468772 C162.864453,60.7774035 162.6034,60.878924 162.322043,60.9514386 C162.040687,61.0239532 161.731774,61.0602105 161.395307,61.0602105 Z M173.894893,61.5214035 L173.894893,49.2084211 L172.998613,49.2084211 L172.998613,61.5214035 L173.894893,61.5214035 Z M178.830722,61.5214035 L178.830722,55.0298947 C179.213599,54.5193918 179.648687,54.1176608 180.135985,53.8247018 C180.623283,53.5317427 181.15119,53.3852632 181.719704,53.3852632 C182.485459,53.3852632 183.053973,53.6158596 183.425248,54.0770526 C183.796523,54.5382456 183.98216,55.174924 183.98216,55.9870877 L183.98216,55.9870877 L183.98216,61.5214035 L184.808827,61.5214035 L184.808827,55.9870877 C184.808827,55.482386 184.747915,55.0298947 184.62609,54.629614 C184.504266,54.2293333 184.324429,53.8870643 184.086581,53.602807 C183.848733,53.3185497 183.548523,53.1010058 183.18595,52.9501754 C182.823377,52.799345 182.404242,52.7239298 181.928546,52.7239298 C181.284617,52.7239298 180.700149,52.8762105 180.175143,53.1807719 C179.650137,53.4853333 179.190394,53.8870643 178.795915,54.3859649 L178.795915,54.3859649 L178.717599,53.0807018 C178.694394,52.9356725 178.607377,52.8631579 178.456546,52.8631579 L178.456546,52.8631579 L178.004055,52.8631579 L178.004055,61.5214035 L178.830722,61.5214035 Z M190.684445,61.6345263 C191.322574,61.6345263 191.89834,61.4807953 192.411743,61.1733333 C192.925147,60.8658713 193.373287,60.4510877 193.756164,59.9289825 L193.756164,59.9289825 L193.843182,61.2951579 C193.866387,61.4459883 193.950504,61.5214035 194.095533,61.5214035 L194.095533,61.5214035 L194.556726,61.5214035 L194.556726,48.8603509 L193.721357,48.8603509 L193.721357,53.994386 C193.408094,53.5767018 193.036819,53.2590877 192.607533,53.0415439 C192.178246,52.824 191.670644,52.7152281 191.084726,52.7152281 C190.475603,52.7152281 189.937544,52.8312515 189.47055,53.0632982 C189.003556,53.295345 188.609077,53.6129591 188.287112,54.0161404 C187.965147,54.4193216 187.721498,54.8950175 187.556164,55.4432281 C187.390831,55.9914386 187.308164,56.5817076 187.308164,57.2140351 C187.308164,58.6875322 187.605474,59.792655 188.200094,60.5294035 C188.794714,61.266152 189.622831,61.6345263 190.684445,61.6345263 Z M190.919392,60.9644912 C190.031813,60.9644912 189.350176,60.6613801 188.87448,60.0551579 C188.398784,59.4489357 188.160936,58.5018947 188.160936,57.2140351 C188.160936,56.6455205 188.226199,56.1248655 188.356726,55.6520702 C188.487252,55.1792749 188.681591,54.773193 188.939743,54.4338246 C189.197895,54.0944561 189.51841,53.8319532 189.901287,53.6463158 C190.284164,53.4606784 190.730854,53.3678596 191.241357,53.3678596 C191.75186,53.3678596 192.208702,53.4693801 192.611884,53.6724211 C193.015065,53.875462 193.384889,54.2235322 193.721357,54.7166316 L193.721357,54.7166316 L193.721357,59.2850526 C193.355884,59.8129591 192.9411,60.2248421 192.477006,60.5207018 C192.012913,60.8165614 191.493708,60.9644912 190.919392,60.9644912 Z M200.667291,61.6606316 C201.311221,61.6606316 201.895689,61.5098012 202.420695,61.2081404 C202.9457,60.9064795 203.408344,60.5061988 203.808624,60.0072982 L203.808624,60.0072982 L203.88694,61.2951579 C203.892741,61.4459883 203.976858,61.5214035 204.139291,61.5214035 L204.139291,61.5214035 L204.600484,61.5214035 L204.600484,52.8631579 L203.765116,52.8631579 L203.765116,59.3720702 C203.376437,59.8825731 202.938449,60.2814035 202.451151,60.5685614 C201.963852,60.8557193 201.438847,60.9992982 200.876133,60.9992982 C200.11618,60.9992982 199.550566,60.7687018 199.179291,60.3075088 C198.808016,59.8463158 198.622379,59.2096374 198.622379,58.3974737 L198.622379,58.3974737 L198.622379,52.8631579 L197.78701,52.8631579 L197.78701,58.3974737 C197.78701,58.9021754 197.847923,59.3546667 197.969747,59.7549474 C198.091572,60.1552281 198.271408,60.4974971 198.509256,60.7817544 C198.747104,61.0660117 199.045864,61.2835556 199.405537,61.434386 C199.765209,61.5852164 200.185794,61.6606316 200.667291,61.6606316 Z M210.084523,61.6606316 C210.56602,61.6606316 210.995307,61.5910175 211.372383,61.4517895 C211.749459,61.3125614 212.067073,61.1240234 212.325225,60.8861754 C212.583377,60.6483275 212.780617,60.3669708 212.916944,60.0421053 C213.053272,59.7172398 213.121435,59.366269 213.121435,58.989193 C213.121435,58.6411228 213.051821,58.3452632 212.912593,58.101614 C212.773365,57.8579649 212.590628,57.6520234 212.364383,57.4837895 C212.138137,57.3155556 211.881435,57.1748772 211.594277,57.0617544 C211.30712,56.9486316 211.01271,56.8456608 210.711049,56.7528421 C210.409389,56.6600234 210.114979,56.5672047 209.827821,56.474386 C209.540663,56.3815673 209.283962,56.271345 209.057716,56.1437193 C208.83147,56.0160936 208.648734,55.8623626 208.509506,55.6825263 C208.370277,55.5026901 208.300663,55.2764444 208.300663,55.0037895 C208.300663,54.783345 208.351424,54.5730526 208.452944,54.3729123 C208.554465,54.1727719 208.696593,53.9972865 208.87933,53.8464561 C209.062067,53.6956257 209.282511,53.5752515 209.540663,53.4853333 C209.798815,53.3954152 210.084523,53.3504561 210.397786,53.3504561 C210.745856,53.3504561 211.040266,53.3867135 211.281014,53.4592281 C211.521763,53.5317427 211.724804,53.6129591 211.890137,53.7028772 C212.05547,53.7927953 212.188897,53.8740117 212.290418,53.9465263 C212.391938,54.0190409 212.474605,54.0552982 212.538418,54.0552982 C212.625435,54.0552982 212.689248,54.0146901 212.729856,53.9334737 L212.729856,53.9334737 L212.912593,53.6463158 C212.570324,53.3330526 212.194698,53.1010058 211.785716,52.9501754 C211.376734,52.799345 210.908289,52.7239298 210.380383,52.7239298 C209.939494,52.7239298 209.542114,52.7877427 209.188242,52.9153684 C208.834371,53.0429942 208.53416,53.2141287 208.287611,53.4287719 C208.041061,53.6434152 207.851073,53.8928655 207.717646,54.1771228 C207.584219,54.4613801 207.517506,54.7572398 207.517506,55.0647018 C207.517506,55.4243743 207.58712,55.7245848 207.726348,55.9653333 C207.865576,56.2060819 208.048313,56.4105731 208.274558,56.578807 C208.500804,56.7470409 208.757506,56.886269 209.044663,56.9964912 C209.331821,57.1067135 209.627681,57.2082339 209.932242,57.3010526 C210.236804,57.3938713 210.532663,57.4866901 210.819821,57.5795088 C211.106979,57.6723275 211.363681,57.7854503 211.589927,57.9188772 C211.816172,58.0523041 211.998909,58.2147368 212.138137,58.4061754 C212.277365,58.597614 212.346979,58.8383626 212.346979,59.1284211 C212.346979,59.3894737 212.29912,59.6374737 212.2034,59.8724211 C212.107681,60.1073684 211.967003,60.3118596 211.781365,60.4858947 C211.595728,60.6599298 211.363681,60.7977076 211.085225,60.8992281 C210.806769,61.0007485 210.484804,61.0515088 210.11933,61.0515088 C209.730652,61.0515088 209.404336,61.0050994 209.140383,60.9122807 C208.876429,60.819462 208.655985,60.7193918 208.479049,60.6120702 C208.302114,60.5047485 208.158535,60.4046784 208.048313,60.3118596 C207.93809,60.2190409 207.845272,60.1726316 207.769856,60.1726316 C207.706044,60.1726316 207.656734,60.1842339 207.621927,60.2074386 C207.58712,60.2306433 207.555213,60.2654503 207.526207,60.3118596 L207.526207,60.3118596 L207.326067,60.6077193 C207.674137,60.9209825 208.068617,61.1747836 208.509506,61.3691228 C208.950394,61.563462 209.4754,61.6606316 210.084523,61.6606316 Z M218.353123,61.6606316 C218.718597,61.6606316 219.071018,61.5866667 219.410387,61.4387368 C219.749755,61.290807 220.029661,61.0950175 220.250106,60.8513684 L220.250106,60.8513684 L220.02386,60.4858947 C219.977451,60.427883 219.931042,60.3988772 219.884632,60.3988772 C219.844024,60.3988772 219.788913,60.4293333 219.719299,60.4902456 C219.649685,60.5511579 219.559767,60.6178713 219.449545,60.690386 C219.339322,60.7629006 219.208796,60.829614 219.057966,60.8905263 C218.907135,60.9514386 218.727299,60.9818947 218.518457,60.9818947 C218.350223,60.9818947 218.193591,60.9557895 218.048562,60.9035789 C217.903533,60.8513684 217.777357,60.770152 217.670036,60.6599298 C217.562714,60.5497076 217.478597,60.4090292 217.417685,60.2378947 C217.356773,60.0667602 217.326316,59.862269 217.326316,59.6244211 L217.326316,59.6244211 L217.326316,53.7507368 L220.049966,53.7507368 L220.049966,53.1329123 L217.326316,53.1329123 L217.326316,49.8262456 L216.934737,49.8262456 C216.870925,49.8262456 216.820164,49.8465497 216.782457,49.8871579 C216.744749,49.9277661 216.722995,49.9741754 216.717194,50.026386 L216.717194,50.026386 L216.508352,53.1242105 L215.029053,53.2286316 L215.029053,53.5505965 C215.029053,53.6144094 215.049357,53.6637193 215.089966,53.6985263 C215.130574,53.7333333 215.182784,53.7507368 215.246597,53.7507368 L215.246597,53.7507368 L216.490948,53.7507368 L216.490948,59.6679298 C216.490948,60.3466667 216.654831,60.8484678 216.982597,61.1733333 C217.310363,61.4981988 217.767205,61.6606316 218.353123,61.6606316 Z M223.558706,61.5214035 L223.558706,55.8913684 C223.819759,55.125614 224.160578,54.5396959 224.581162,54.133614 C225.001747,53.7275322 225.539806,53.5244912 226.195338,53.5244912 C226.375174,53.5244912 226.534706,53.5360936 226.673934,53.5592982 C226.813162,53.5825029 226.930636,53.6086082 227.026355,53.637614 C227.122075,53.6666199 227.201841,53.6927251 227.265654,53.7159298 C227.329467,53.7391345 227.378777,53.7507368 227.413584,53.7507368 C227.512203,53.7507368 227.570215,53.7043275 227.587619,53.6115088 L227.587619,53.6115088 L227.700741,53.037193 C227.503502,52.9327719 227.29466,52.8530058 227.074215,52.7978947 C226.853771,52.7427836 226.613022,52.7152281 226.351969,52.7152281 C225.673233,52.7152281 225.101817,52.9139181 224.637724,53.3112982 C224.17363,53.7086784 223.802355,54.2583392 223.523899,54.9602807 L223.523899,54.9602807 L223.454285,53.1329123 C223.448484,53.0342924 223.423829,52.9646784 223.38032,52.9240702 C223.336812,52.883462 223.265747,52.8631579 223.167127,52.8631579 L223.167127,52.8631579 L222.73204,52.8631579 L222.73204,61.5214035 L223.558706,61.5214035 Z M230.844008,50.6355088 C230.94843,50.6355088 231.047049,50.6152047 231.139868,50.5745965 C231.232687,50.5339883 231.313903,50.4788772 231.383517,50.4092632 C231.453131,50.3396491 231.509693,50.259883 231.553201,50.1699649 C231.59671,50.0800468 231.618465,49.9828772 231.618465,49.8784561 C231.618465,49.7740351 231.59671,49.6739649 231.553201,49.5782456 C231.509693,49.4825263 231.453131,49.3998596 231.383517,49.3302456 C231.313903,49.2606316 231.232687,49.2055205 231.139868,49.1649123 C231.047049,49.1243041 230.94843,49.104 230.844008,49.104 C230.739587,49.104 230.640968,49.1243041 230.548149,49.1649123 C230.45533,49.2055205 230.374114,49.2606316 230.3045,49.3302456 C230.234886,49.3998596 230.179775,49.4825263 230.139166,49.5782456 C230.098558,49.6739649 230.078254,49.7740351 230.078254,49.8784561 C230.078254,49.9828772 230.098558,50.0800468 230.139166,50.1699649 C230.179775,50.259883 230.234886,50.3396491 230.3045,50.4092632 C230.374114,50.4788772 230.45533,50.5339883 230.548149,50.5745965 C230.640968,50.6152047 230.739587,50.6355088 230.844008,50.6355088 Z M231.252991,61.5214035 L231.252991,52.8631579 L230.426324,52.8631579 L230.426324,61.5214035 L231.252991,61.5214035 Z M236.693521,61.6606316 C237.047393,61.6606316 237.372258,61.6272749 237.668118,61.5605614 C237.963977,61.493848 238.239533,61.3966784 238.494784,61.2690526 C238.750036,61.1414269 238.995135,60.9847953 239.230083,60.7991579 C239.46503,60.6135205 239.701428,60.4046784 239.939276,60.1726316 L239.939276,60.1726316 L240.0611,61.2777544 C240.101708,61.4401871 240.20903,61.5214035 240.383065,61.5214035 L240.383065,61.5214035 L240.713732,61.5214035 L240.713732,55.8826667 C240.713732,55.4011696 240.65572,54.9646316 240.539697,54.5730526 C240.423673,54.1814737 240.251088,53.8479064 240.021942,53.5723509 C239.792796,53.2967953 239.504188,53.0850526 239.156118,52.9371228 C238.808048,52.789193 238.401966,52.7152281 237.937872,52.7152281 C237.305545,52.7152281 236.739931,52.8312515 236.24103,53.0632982 C235.742129,53.295345 235.266433,53.637614 234.813942,54.0901053 L234.813942,54.0901053 L234.961872,54.3424561 C235.019884,54.4468772 235.106901,54.4990877 235.222925,54.4990877 C235.309942,54.4990877 235.417264,54.441076 235.54489,54.3250526 C235.672515,54.2090292 235.837849,54.0814035 236.04089,53.9421754 C236.243931,53.8029474 236.491931,53.6753216 236.78489,53.5592982 C237.077849,53.4432749 237.43317,53.3852632 237.850855,53.3852632 C238.529591,53.3852632 239.041545,53.6013567 239.386714,54.0335439 C239.731884,54.465731 239.904469,55.0821053 239.904469,55.8826667 L239.904469,55.8826667 L239.904469,56.7876491 C238.924071,56.8108538 238.084352,56.8920702 237.385311,57.0312982 C236.68627,57.1705263 236.114855,57.3561637 235.671065,57.5882105 C235.227276,57.8202573 234.90096,58.0929123 234.692118,58.4061754 C234.483276,58.7194386 234.378855,59.058807 234.378855,59.4242807 C234.378855,59.8187602 234.444118,60.1566784 234.574644,60.4380351 C234.70517,60.7193918 234.877755,60.9499883 235.092398,61.1298246 C235.307042,61.3096608 235.553591,61.4430877 235.832048,61.5301053 C236.110504,61.6171228 236.397662,61.6606316 236.693521,61.6606316 Z M236.902363,61.0602105 C236.676118,61.0602105 236.458574,61.0283041 236.249732,60.9644912 C236.04089,60.9006784 235.858153,60.8006082 235.701521,60.6642807 C235.54489,60.5279532 235.418714,60.3539181 235.322995,60.1421754 C235.227276,59.9304327 235.179416,59.6795322 235.179416,59.3894737 C235.179416,59.0820117 235.270784,58.8079064 235.453521,58.5671579 C235.636258,58.3264094 235.920515,58.1190175 236.306293,57.9449825 C236.692071,57.7709474 237.18227,57.6331696 237.77689,57.5316491 C238.371509,57.4301287 239.080702,57.3677661 239.904469,57.3445614 L239.904469,57.3445614 L239.904469,59.5983158 C239.701428,59.8071579 239.495486,60.0014971 239.286644,60.1813333 C239.077802,60.3611696 238.853007,60.5163509 238.612258,60.6468772 C238.371509,60.7774035 238.110457,60.878924 237.8291,60.9514386 C237.547743,61.0239532 237.238831,61.0602105 236.902363,61.0602105 Z M244.936016,61.5214035 L244.936016,48.8603509 L244.10935,48.8603509 L244.10935,61.5214035 L244.936016,61.5214035 Z" id="DistribuidoraTcnicaIndustrial"></path>
        </g>
    </g>
</svg>