<?xml version="1.0" encoding="UTF-8"?>
<svg width="342px" height="98px" viewBox="0 0 342 98" version="1.1" xmlns="http://www.w3.org/2000/svg" xmlns:xlink="http://www.w3.org/1999/xlink">
    <!-- Generator: Sketch 64 (93537) - https://sketch.com -->
    <title>shopify_monotone_white</title>
    <desc>Created with Sketch.</desc>
    <g id="Page-1" stroke="none" stroke-width="1" fill="none" fill-rule="evenodd">
        <g id="shopify_monotone_white" fill="#9FA6B2" fill-rule="nonzero">
            <g id="Group" transform="translate(96.468750, 18.375000)">
                <path d="M21.74375,35.9078125 C18.834375,34.3 17.303125,32.9984375 17.303125,31.1609375 C17.303125,28.7875 19.3703125,27.3328125 22.6625,27.3328125 C26.490625,27.3328125 29.859375,28.940625 29.859375,28.940625 L32.5390625,20.7484375 C32.5390625,20.7484375 30.0890625,18.834375 22.815625,18.834375 C12.709375,18.834375 5.665625,24.653125 5.665625,32.76875 C5.665625,37.3625 8.9578125,40.884375 13.321875,43.4109375 C16.84375,45.4015625 18.06875,46.85625 18.06875,48.9234375 C18.06875,51.14375 16.3078125,52.9046875 13.015625,52.9046875 C8.115625,52.9046875 3.521875,50.378125 3.521875,50.378125 L0.6890625,58.5703125 C0.6890625,58.5703125 4.9765625,61.403125 12.096875,61.403125 C22.509375,61.403125 29.9359375,56.2734375 29.9359375,47.0859375 C30.0890625,42.0328125 26.2609375,38.5109375 21.74375,35.9078125 Z" id="s_5_"></path>
                <path d="M63.240625,18.68125 C58.1109375,18.68125 54.1296875,21.13125 50.990625,24.80625 L50.8375,24.7296875 L55.278125,1.4546875 L43.640625,1.4546875 L32.3859375,60.6375 L43.946875,60.6375 L47.775,40.425 C49.30625,32.76875 53.2109375,28.0984375 56.8859375,28.0984375 C59.4890625,28.0984375 60.484375,29.859375 60.484375,32.3859375 C60.484375,33.99375 60.33125,35.9078125 59.9484375,37.515625 L55.584375,60.7140625 L67.1453125,60.7140625 L71.6625,36.8265625 C72.1984375,34.3 72.5046875,31.3140625 72.5046875,29.246875 C72.6578125,22.5859375 69.2890625,18.68125 63.240625,18.68125 Z" id="h_5_"></path>
                <path d="M98.8421875,18.68125 C84.9078125,18.68125 75.64375,31.2375 75.64375,45.2484375 C75.64375,54.20625 81.15625,61.4796875 91.56875,61.4796875 C105.273438,61.4796875 114.460938,49.2296875 114.460938,34.9125 C114.5375,26.5671875 109.714063,18.68125 98.8421875,18.68125 Z M93.1765625,52.521875 C89.1953125,52.521875 87.5875,49.153125 87.5875,44.9421875 C87.5875,38.28125 91.0328125,27.4859375 97.3109375,27.4859375 C101.445312,27.4859375 102.746875,31.0078125 102.746875,34.453125 C102.746875,41.65 99.3015625,52.521875 93.1765625,52.521875 Z" id="o_5_"></path>
                <path d="M144.167188,18.68125 C136.357813,18.68125 131.917188,25.571875 131.917188,25.571875 L131.764063,25.571875 L132.453125,19.3703125 L122.19375,19.3703125 C121.657813,23.58125 120.739063,29.9359375 119.820312,34.759375 L111.78125,77.021875 L123.342188,77.021875 L126.557813,59.871875 L126.7875,59.871875 C126.7875,59.871875 129.160938,61.403125 133.601562,61.403125 C147.229688,61.403125 156.110937,47.46875 156.110937,33.38125 C156.110937,25.6484375 152.665625,18.68125 144.167188,18.68125 Z M133.142187,52.7515625 C130.15625,52.7515625 128.395312,51.0671875 128.395312,51.0671875 L130.309375,40.271875 C131.6875,33.075 135.439062,28.2515625 139.420312,28.2515625 C142.942187,28.2515625 144.014062,31.54375 144.014062,34.60625 C144.014062,42.0328125 139.573438,52.7515625 133.142187,52.7515625 Z" id="p_5_"></path>
                <path d="M172.648438,2.0671875 C168.973437,2.0671875 165.9875,4.9765625 165.9875,8.8046875 C165.9875,12.25 168.13125,14.6234375 171.423438,14.6234375 L171.576563,14.6234375 C175.175,14.6234375 178.314063,12.1734375 178.390625,7.8859375 C178.467188,4.440625 176.170313,2.0671875 172.648438,2.0671875 Z" id="dot_5_"></path>
                <polygon id="i_5_" points="156.417188 60.6375 168.054688 60.6375 175.940625 19.6 164.226562 19.6"></polygon>
                <path d="M205.340625,19.5234375 L197.301562,19.5234375 L197.684375,17.609375 C198.373437,13.628125 200.670312,10.10625 204.575,10.10625 C206.642187,10.10625 208.25,10.71875 208.25,10.71875 L210.546875,1.684375 C210.546875,1.684375 208.55625,0.6890625 204.26875,0.6890625 C200.134375,0.6890625 196.076563,1.8375 192.9375,4.5171875 C188.95625,7.8859375 187.11875,12.709375 186.2,17.609375 L185.89375,19.5234375 L180.534375,19.5234375 L178.85,28.2515625 L184.209375,28.2515625 L178.084375,60.6375 L189.645313,60.6375 L195.770313,28.2515625 L203.732813,28.2515625 L205.340625,19.5234375 Z" id="f_5_"></path>
                <path d="M233.209375,19.6 C233.209375,19.6 225.935938,37.821875 222.720313,47.775 L222.567188,47.775 C222.3375,44.559375 219.734375,19.6 219.734375,19.6 L207.560938,19.6 L214.528125,57.26875 C214.68125,58.1109375 214.604688,58.646875 214.298438,59.1828125 C212.920313,61.7859375 210.7,64.3125 208.020313,66.15 C205.876563,67.7578125 203.426563,68.753125 201.5125,69.4421875 L204.728125,79.2421875 C207.101563,78.70625 211.925,76.7921875 216.059375,72.9640625 C221.342188,67.9875 226.242188,60.4078125 231.21875,49.9953125 L245.382813,19.6 L233.209375,19.6 Z" id="y_5_"></path>
            </g>
            <g id="Group">
                <path d="M57.26875,11.33125 C57.26875,11.33125 56.196875,11.6375 54.4359375,12.1734375 C54.1296875,11.178125 53.6703125,10.0296875 53.0578125,8.8046875 C51.0671875,4.9765625 48.08125,2.909375 44.559375,2.909375 C44.559375,2.909375 44.559375,2.909375 44.559375,2.909375 C44.3296875,2.909375 44.1,2.909375 43.79375,2.9859375 C43.7171875,2.8328125 43.5640625,2.75625 43.4875,2.603125 C41.95625,0.91875 39.965625,0.153125 37.5921875,0.2296875 C32.9984375,0.3828125 28.4046875,3.675 24.7296875,9.5703125 C22.1265625,13.7046875 20.1359375,18.9109375 19.6,22.96875 C14.3171875,24.5765625 10.6421875,25.725 10.565625,25.8015625 C7.8859375,26.64375 7.809375,26.7203125 7.503125,29.246875 C7.2734375,31.1609375 0.2296875,85.0609375 0.2296875,85.0609375 L58.1109375,95.090625 L58.1109375,11.2546875 C57.6515625,11.2546875 57.421875,11.33125 57.26875,11.33125 Z M43.8703125,15.465625 C40.8078125,16.384375 37.4390625,17.45625 34.146875,18.4515625 C35.065625,14.853125 36.903125,11.2546875 39.046875,8.88125 C39.8890625,8.0390625 41.0375,7.04375 42.3390625,6.43125 C43.640625,9.1875 43.946875,12.9390625 43.8703125,15.465625 Z M37.5921875,3.36875 C38.6640625,3.36875 39.5828125,3.5984375 40.3484375,4.0578125 C39.1234375,4.6703125 37.8984375,5.665625 36.75,6.8140625 C33.840625,9.953125 31.6203125,14.853125 30.7015625,19.5234375 C27.9453125,20.365625 25.1890625,21.2078125 22.6625,21.9734375 C24.346875,14.6234375 30.5484375,3.521875 37.5921875,3.36875 Z M28.7109375,45.478125 C29.0171875,50.378125 41.95625,51.45 42.721875,63.0109375 C43.2578125,72.121875 37.8984375,78.3234375 30.165625,78.7828125 C20.825,79.3953125 15.6953125,73.8828125 15.6953125,73.8828125 L17.6859375,65.4609375 C17.6859375,65.4609375 22.815625,69.365625 26.95,69.059375 C29.6296875,68.90625 30.625,66.6859375 30.5484375,65.1546875 C30.165625,58.7234375 19.6,59.10625 18.9109375,48.540625 C18.2984375,39.659375 24.1171875,30.7015625 36.9796875,29.859375 C41.95625,29.553125 44.4828125,30.778125 44.4828125,30.778125 L41.5734375,41.803125 C41.5734375,41.803125 38.28125,40.271875 34.3765625,40.578125 C28.7109375,40.9609375 28.634375,44.559375 28.7109375,45.478125 Z M46.9328125,14.546875 C46.9328125,12.25 46.6265625,8.9578125 45.5546875,6.2015625 C49.0765625,6.890625 50.7609375,10.7953125 51.5265625,13.16875 C50.1484375,13.5515625 48.6171875,14.0109375 46.9328125,14.546875 Z" id="Shape"></path>
                <path d="M59.871875,94.9375 L83.9125,88.965625 C83.9125,88.965625 73.5765625,19.0640625 73.5,18.6046875 C73.4234375,18.1453125 73.040625,17.8390625 72.6578125,17.8390625 C72.275,17.8390625 65.5375,17.6859375 65.5375,17.6859375 C65.5375,17.6859375 61.403125,13.7046875 59.871875,12.1734375 L59.871875,94.9375 Z" id="Path"></path>
            </g>
        </g>
    </g>
</svg>